/* XPM */
static char *evil_6[] = {
/* columns rows colors chars-per-pixel */
"48 48 19 1 ",
"  c black",
". c #401E5B",
"X c #62114F",
"o c #124751",
"O c gray50",
"+ c #94277B",
"@ c green",
"# c #D49809",
"$ c #FFD017",
"% c #62328D",
"& c #C140A5",
"* c #DD75BB",
"= c #8B4FC1",
"- c #228898",
"; c #55C4D7",
": c gray60",
"> c #FFE89C",
", c #B480DB",
"< c #A2DFEA",
/* pixels */
"@@@@@@@@@@@@@@@@@@@@@@@ .......@@@@@@@@@@@@@@@@@",
"@@@@@@@@@@@@@@@@@@@@@@@@ %%%%%%...@@@@@@@@@@@@@@",
" .....%%%%@@@@@@@@@@@@@@@ .....%%%..@@@@@@@@@@@@",
"@ %%%%====%%%@@@@@@@@@@@@@ XXXX..%%%..@@@@@@@@@@",
"@@ ++++++====%%@@@@@@@@@@@@ X+++X..%%%..@@@@@@@@",
"@@@ ++++++++===%%@@@@@@@@@@@ +++++X..%%%.@@@@@@@",
"@@@@ +&&&&++++===%%@@@@@@@@@ +++++++X.%%%.@@@@@@",
"@@@@ +&&&&&&++++===%@@@@@@@@@ +++++++X.%%%.@@@@@",
"@@@@@ &&&&&&&&+++===%@@@@@@@@ ++++++++X.%%.@@@@@",
"@@@@@ &&&&&&&&&+++=,=%@@@@@@@ X..........%%.@@@@",
"@@@@@ +&&&&&&&&&+++=,%@@@@@@...%%%%%%%%%%%=.@@@@",
"@@@@@ ............++,,%@@@@.%%%%.........===.@@@",
"@@@@..%========,,,,,,,%@@@......XXXXX..%%%==.@@@",
"@@@.%%%%%%++++++++=,,,,%@@@@ X++++X..%%%..%=%.@@",
"@@@@@ +++++++++++..=,,,%@@o@@ +++X.%%%.o....%.@@",
"@@@@@@ +&&&&&&+..=,,,=,,%oo@@ ++X.%%..Xoo.@@..@@",
"+@@@@@@ &&&&+..=,,,,=  ,%o;o@@ X.%%.XXo--o@@@@@@",
"++@@@@@ +&&+.==,%%,= @@  -<;o@ ---.XXooo-o@@@@@@",
"+&++@@@@ &+.==%%%%, .@@@o;;<;o..-;--o-o-oo@@@@@@",
"@ &&++@@ +.==%%++%,.@ ooo;-<<-oo--;;--o---o@@@@@",
"@@ &&&++ .=%%++++%=... -;;o;<;-oo--;;;-o-;-o@@@@",
"@@@  &&&.=%+++&&+%==.%% -;%o-;--oo--;<;o-;;-o@@@",
"@@@@@  .%%++&&&&+%==.%%. -%% -ooooo-;<<;o-;;o@@@",
"@@@@@@.%%.+&&&&&++%=.%. --%% -o-;;-o-;<<-o;;o@@@",
"@@@@@@.%   +&&&&&+%==.%. --%% -o-;;;<<<<;o-;-o@@",
"@@@@@@  @@@  +&&&+%==.%% ++++ --o-;;;;;<;-o--o@@",
"@@@@@@@@@@@.. +&&++%==.%%o+&*+ --oo  --;;-o--o@@",
"@@@ooo@@...%%% +&++%==.%oo-+&*&   %##   --o  @@@",
"@@ ---..%===%%% ++++%= o----+++++%%%#$>    # .@@",
"@@ -------===%% ++++%%%  +++&***&+%%%#$ #%%==%%@",
"@@@        ......%%.%% o--+&***&+++%====,,,,,,.@",
"@@@@@@@@@@@    ........  o-++++++%%==   %=,,,=.@",
"@@@@@@@@@@@@@@@      .%%.  o--&*&++= +:+  %==.@@",
"@@@@@@@@@@@@@@@@@@@@@   ooooo&&&++-%==+&*&%  @@@",
"@@@@@@@@@@@@@@@@@@@@@@@ o-;      ---%====%  @@@@",
"@@@@@@@@@@@@@@@@@@@@@@@@  -;;;---;-       @@@@@@",
"@@@@@@@@@@@@@@@@@@@@@@@@@@     o;;;--o--o@@@@@@@",
"@@@@@@@@@@@@@@@@@@@@@@@@@@@@@@ -;-  o-- @@@@@@@@",
"@@@@@@@@@@@@@@@@@@@@@@@@@@@@@     @@   @@@@@@@@@",
"@@@@@@@@@@@@@@@@@@@@@@@@@@@@@@@@@@@@@@@@@@@@@@@@",
"@@@@@@@@@@@@@@@@@@@@@@@@@@@@@@@@@@@@@@@@@@@@@@@@",
"@@@@@@@@@@@@@@@@@@@@@@@@@@@@@@@@@@@@@@@@@@@@@@@@",
"@@@@@@@@@@@@@@@@@@@@@@@@@@@@@@@@@@@@@@@@@@@@@@@@",
"@@@@@@@@@@@@@@@@@@@@@@@@@@@@@@@@@@@@@@@@@@@@@@@@",
"@@@@@@@@@@@@@@@@@@@@@@@@@@@@@@@@@@@@@@@@@@@@@@@@",
"@@@@@@@@@@@@@@@@@@OOOOOOOOOOO@@@@@@@@@@@@@@@@@@@",
"@@@@@@@@@@@@@@@@OOOOOOOOOOOOOOO@@@@@@@@@@@@@@@@@",
"@@@@@@@@@@@@@@@@@OOOOOOOOOOOOO@@@@@@@@@@@@@@@@@@"
};
