/* XPM */
static char *evil_8[] = {
/* columns rows colors chars-per-pixel */
"48 48 19 1 ",
"  c black",
". c #401E5B",
"X c #124751",
"o c gray50",
"O c #94277B",
"+ c green",
"@ c #D49809",
"# c #FFD017",
"$ c #62328D",
"% c #C140A5",
"& c #DD75BB",
"* c #8B4FC1",
"= c #228898",
"- c #55C4D7",
"; c gray60",
": c #FFE89C",
"> c #B480DB",
", c #A2DFEA",
"< c #C5C5C5",
/* pixels */
"++++++++++++++++++++++++++++++++++++++++++++++++",
"++++++++++++++++++++++++++++++++++++++++++++++++",
"++++++++++++++++++++++++++++++++++++++++++++++++",
"++++++++++++++++++++++++++++++++++++++++++++++++",
"++++++++++++++++++++++++++++++++++++++++++++++++",
"++++++++++++++++++++++++++X++++++++++++X++++++++",
"+++++++++++++++++++++++++XX++++++++++++XX+++++++",
"+++++++++++++++++++++++++X-X++++++++++X==X++++++",
"++++++++++++++++++++++++X=,-X++===+++XXX=X++++++",
"++++++++++++++++++++++++X--,-X++=-==X=X=XX++++++",
"+++++++++++++++++++++ XXX-=,,=XX==--==X===X+++++",
"++++++++++............ =--X-,-=XX==---=X=-=X++++",
"+++++OO...$***$$$$$$$$$ =-$X=-==XX==-,-X=--=X+++",
"+++OO%%O$****$$$$$$$$$$. =$$ =XXXXX=-,,-X=--X+++",
"+OO%%OOO$$$$$$$$$$$$$$* ==$$ =X=--=X=-,,=X--X+++",
"O%%   %%O..$$$$$$OOOO**. ==$$ =X=---,,,,-X=-=X++",
"O  +++  O....OOOO%%O$*$  OOOO ==X=-----,-=X==X++",
" +++++++ .OOOO%%%%%$**$..XO%&O ==XX  ==--=X==X++",
"+++XXX+++  OOO%%%%O$*$ ..X=O%&%   $@@   ==X  +++",
"++ ===XXX$ OO%%%%%$** ..X===OOOOO$$$@#:    @ .++",
"++ =====..........$>* .  OOO%&&&%O$$$@# @$$**$$+",
"+++ ....***********>$  X==O%&&&%OOO$****>>>>>>.+",
"+++.*****OOOOOOOO*>> ..  X=OOOOOO$$**   $*>>>*.+",
"++   OOOO%%%%%%%%O>> .$$.  X==%&%OO* O;O  $**.++",
"+++++ O%%%%%%%%%O*>>    XXX=O%%%OO$$$O<OOO   +++",
"++++++ %%&&&&%%O..>>* O X==      ==$*O%%%O$ ++++",
"++++++ O%&&&%%..*>>>>*    =-----===$**O%&%$ ++++",
"+++++++ %&%%..*>>>>>>>>> O =--=XX-==$****$ +++++",
"+++++++ O%..*>>>***>$   OOO     --=       ++++++",
"+++++++ ..****OOOO$> ++  OOOOO. ---==X==X+++++++",
"++++++ .***OOO%%%%$> ++++  OOO =-=  X== ++++++++",
"++++++.**OO%%%%&&&$> ++++++ O     ++   +++++++++",
"+++++.**O%%%%%&&&&$> +++++++ OO.$ ++++++++++++++",
"++++.*     %%&&&&&$* ++++++++ O.$ ++++++++++++++",
"++++  +++++  O%&&&$** ++++++++ .$ ++++++++++++++",
"+++++++++++++ O&&&%$* +++++++++ .$ +++++++++++++",
"++++++++++++++ %&&%$* ++++++++++ $ +++++++++++++",
"+++++++++++++++ %&%$* +++++++++++   ++++++++++++",
"++++++++++++++++ %%$* ++++++++++++++++++++++++++",
"+++++++++++++++++ %$* ++++++++++++++++++++++++++",
"++++++++++++++++++ $* ++++++++++++++++++++++++++",
"+++++++++++++++++++ $* +++++++++++++++++++++++++",
"++++++++++++++++++++ $ +++++++++++++++++++++++++",
"+++++++++++++++++++++   ++++++++++++++++++++++++",
"++++++++++++++++++++++++++++++++++++++++++++++++",
"++++++++++++++++++++ooooooo+++++++++++++++++++++",
"++++++++++++++++++ooooooooooo+++++++++++++++++++",
"+++++++++++++++++++ooooooooo++++++++++++++++++++"
};
