/* XPM */
static char *evil_7[] = {
/* columns rows colors chars-per-pixel */
"48 48 19 1 ",
"  c black",
". c #401E5B",
"X c #124751",
"o c gray50",
"O c #94277B",
"+ c green",
"@ c #D49809",
"# c #FFD017",
"$ c #62328D",
"% c #C140A5",
"& c #DD75BB",
"* c #8B4FC1",
"= c #228898",
"- c #55C4D7",
"; c gray60",
": c #FFE89C",
"> c #B480DB",
", c #A2DFEA",
"< c #C5C5C5",
/* pixels */
"++++++++++++++++++++++++++++++++++++++++++++++++",
"++++++++++++++++++++++++++++++++++++++++++++++++",
"++++++++++++++++++++++++++++++++++++++++++++++++",
"++++++++++++++++++++++++++++++++++++++++++++++++",
"++++++++++++++++++++++++++++++++++++++++++++++++",
"++++++++++++++++++++++++++++++++++++++++++++++++",
"++++++++++++++++++++++++++++++++++++++++++++++++",
"++++++++++++.......+++++++++++++++++++++++++++++",
"+++++++++++++ ..$$$...++++++++++++++++++++++++++",
"++++++++++++++ O...$$$....++++++++++++++++++++++",
"+++++++++++++++ OOO...$$$$X.+++++++++++X++++++++",
"++++++++++++++++ OOOOO..$XX$..+++++++++XX+++++++",
"++++++++++++++++ OO%%%OO.X-X$$..++++++X==X++++++",
"++......+++++++++ OO%%%OX=,-X$$===+++XXX=X++++++",
"+++ $$$$....+++++ OOOOOOX--,-X$$=-==X=X=XX++++++",
"++++ OO$$$**...++ OOO XXX-=,,=XX==--==X===X+++++",
"OOOOO %OOO$$***....... =--X-,-=XX==---=X=-=X++++",
"+  %% %%%%OO$$***$..$$$ =-$X=-==XX==-,-X=--=X+++",
"+++  O &&%%%OO$$***$..$. =$$ =XXXXX=-,,-X=--X+++",
"+++++  %&&&%%%OO$$*>*$. ==$$ =X=--=X=-,,=X--X+++",
"++++++  &&&&%%%OOO$*>>$. ==$$ =X=---,,,,-X=-=X++",
"+++++++ &&&&%%....$$*>>$ OOOO ==X=-----,-=X==X++",
"+++++++ %%%...$$***>>>>>$XO%&O ==XX  ==--=X==X++",
"+++XXX++...$**********>>$X=O%&%   $@@   ==X  +++",
"++ ===..$***OOOOO$**$  >$===OOOOO$$$@#:    @ .++",
"++ =..$**OOO%%%O$**$ OO  OOO%&&&%O$$$@# @$$**$$+",
"+++.$$$OO%%%%%%O$** OO X==O%&&&%OOO$****>>>>>>.+",
"++++  O%%%&&&&%$**.....  X=OOOOOO$$**   $*>>>*.+",
"++++++  %&&&&&%$*$.  .$$.  X==%&%OO* O;O  $**.++",
"++++++++ &&&&&%$*.+++   XXX=O%%%OO$$$O<OOO   +++",
"+++++++++ %&&&%$*.+++++ X==      ==$**O%&%$ ++++",
"++++++++++ %&&$*$.++++++  =-----====$****$ +++++",
"+++++++++++ %&$*.+++++++++ =--=XX-=       ++++++",
"+++++++++++ %%$*.++++++++++     ---==X==X+++++++",
"++++++++++++ %$*.+++++++++++++ =-=  X== ++++++++",
"++++++++++++ %$*.++++++++++++     ++   +++++++++",
"+++++++++++++ $*.+++++++++++++++++++++++++++++++",
"+++++++++++++ $*.+++++++++++++++++++++++++++++++",
"++++++++++++++ *.+++++++++++++++++++++++++++++++",
"++++++++++++++ $.+++++++++++++++++++++++++++++++",
"+++++++++++++++ .+++++++++++++++++++++++++++++++",
"++++++++++++++++ +++++++++++++++++++++++++++++++",
"++++++++++++++++++++++++++++++++++++++++++++++++",
"++++++++++++++++++++++++++++++++++++++++++++++++",
"++++++++++++++++++++++++++++++++++++++++++++++++",
"+++++++++++++++++++ooooooooo++++++++++++++++++++",
"+++++++++++++++++ooooooooooooo++++++++++++++++++",
"++++++++++++++++++ooooooooooo+++++++++++++++++++"
};
