/* XPM */
static char *evil_0[] = {
/* columns rows colors chars-per-pixel */
"48 48 21 1 ",
"  c black",
". c #29201E",
"X c #401E5B",
"o c #62114F",
"O c #124751",
"+ c gray50",
"@ c #94277B",
"# c green",
"$ c #AE8C07",
"% c #D49809",
"& c #FFD017",
"* c #62328D",
"= c #C140A5",
"- c #DD75BB",
"; c #8B4FC1",
": c #228898",
"> c #55C4D7",
", c gray60",
"< c #FFE89C",
"1 c #B480DB",
"2 c #A2DFEA",
/* pixels */
"################################################",
"XXXXX#####################################XXXXX#",
"#X*;;XXX###############################XXX***X##",
"##X**;;*XX###########################XX*;;**X###",
"##@==**;;*X#########################X*;;**@@o###",
"##@====**1;X###########@###########X*;**@===o###",
"##@=---==*11X#########@=o#########X*;*@@====o###",
"#@=------*;1;X########@=o########X*;*@@=====@o##",
"#@=------=*11X########@=o########X;;*@======@o##",
"#@=----===*;1;X#######@=o#######X*;**@@@@@@@@o##",
"X*;;;;;;111111X#######@=o#######X;111;;;;;****X#",
"#X*******;;111;X######@=o######X;11;;;*******X##",
"##@======X11111X######@=o######X1;1;;X@@@@@@o###",
"##@=---=X11;1XXX#####@@=@o#####XXX1*;;X@===@o###",
"###@--=X;1*X;X#######@@=@o#######X;X*;;X@==o####",
"###@==X;;*@X*O######@=@=@@o######O*X@*;;X@=o####",
"###@=X;**@=X:OX####X=*****@X####XOOX@@**;X@o####",
"###@X**@===X:2Oooo:**;;;;;**OoooO>OX@@@@**Xo####",
"####X*==--=@:22O@::*OO;;;OO*OO@O2>O@@==@@*X#####",
"####X   ===@:>2>O:>:O:O*O:OO:OO2>:O@@=@   X#####",
"#### ###  =:>>O2>:>:O>:O:>OO:O::O:OO@  ### #####",
"########## @:>;O:>2>:>>:>>O:::OO*::@ ###########",
"########### O:;*:>22:>>>>:O:>:O**:O ############",
"########### ::OO:>22>:>:>O:>>:OOO:: ############",
"############ :O:>:>22::::O>2>O>:O: #############",
"###########   :O>2222:O:O:222>>O:   ############",
"############@X O:>>22>O:O>22>>:O X@#############",
"############@@@O  :>>>:O:>>>:  O@@@#############",
"############ --=O%  ::O*O::  %O@=@ #############",
"############# --X%< %OO*OO< %$X=@ ##############",
"############ ==@X*&.&%*;*%&.&*X==@ #############",
"############# -- **;;11111;;** =@ ##############",
"############## -=   *;111;*   @@ ###############",
"############### @-X*  *;*  *X@= ################",
"###############@--X;@,   ,@; @@@################",
"##############    >XX;;;;;XX:    ###############",
"################## >:XXXXXO: ###################",
"###################   : :   ####################",
"#####################  #  ######################",
"################################################",
"################################################",
"################################################",
"################################################",
"################################################",
"################################################",
"##################+++++++++++###################",
"################+++++++++++++++#################",
"#################+++++++++++++##################"
};
