/* XPM */
static char *evil_1[] = {
/* columns rows colors chars-per-pixel */
"48 48 22 1 ",
"  c black",
". c #29201E",
"X c #401E5B",
"o c #62114F",
"O c #124751",
"+ c gray50",
"@ c #94277B",
"# c green",
"$ c #AE8C07",
"% c #D49809",
"& c #FFD017",
"* c #62328D",
"= c #C140A5",
"- c #DD75BB",
"; c #8B4FC1",
": c #228898",
"> c #55C4D7",
", c gray60",
"< c #FFE89C",
"1 c #B480DB",
"2 c #A2DFEA",
"3 c #C5C5C5",
/* pixels */
"################################################",
"################################################",
"################################################",
"################################################",
"#######################@########################",
"######################@=o#######################",
"######################@=o#######################",
"######################@=o#######################",
"######################@=o#######################",
"#####################@@=@o######################",
"#####################@@=@o######################",
"#######X############@=@=@@o############X########",
"#######XX####O#####X=*****@X#####O####XX########",
"#######X*X@#:O###@X**;;;;;**Xo###OO#oX*X########",
"#######@*X@@:2O@@@:*;;;;;;;*O@ooO>Oo@X*o########",
"#######@**X@:22O@::*OO;;;OO*OO@O2>O@X**o########",
"######@=*;X@:>2>O:>:O:O*O:OO:OO2>:O@X**@o#######",
"######@=*; :>>O2>:>:O>:O:>OO:O::O:OO **@o#######",
"#####@==*;* :>;O:>2>:>>:>>O:::OO*:: ***@@o######",
"#XX@@=-=*1*@O:;*:>22:>>>>:O:>:O**:O@*;*@=@ooXX##",
"#X***@@=*1* ::OO:>22>:>:>O:>>:OOO:: *;*@@@***X##",
"#@@*;;*@;1;* :O:>:>22::::O>2>O>:O: *;1;@*;;*@o##",
"#@==*11;11*   :O>2222:O:O:222>>O:   *11;1;*@=o##",
"#@--=*111; #@X O:>>22>O:O>22>>:O X@# ;11;*@==o##",
"#@-=*;1;1 ##@@@O  :>>>:O:>>>:  O@@@## 1;;**@=o##",
"#@=@*1; 1 ## --=O%  ::O*O::  %O@=@ ## ; ;;*@@o##",
"#@@*1; #  ### --X%< %OO*OO< $%X=@ ###  # ;;*@o##",
"X@*;; ###### ==@X*&.&%*;*%&.&*X==@ ###### ;;*@X#",
"X@*; ######## -- **;;11111;;** =@ ######## ;*@X#",
"X*;; ######### -=   *;111;*   @@ ######### ;;*X#",
"X*; ########### @-X*  *;*  *X@= ########### ;*X#",
"X;; ###########@--X;@,   ,@; @@@########### ;;X#",
"X; ###########    :X;3=-=3;X:    ########### ;X#",
"X; ############## >:XX;;;XXO: ############## ;X#",
"X ################ >>:XXX::: ################ X#",
"X #################   : :   ################# X#",
"X ###################  #  ################### X#",
" ############################################# #",
" ############################################# #",
" ############################################# #",
"################################################",
"################################################",
"################################################",
"################################################",
"################################################",
"###################+++++++++####################",
"#################+++++++++++++##################",
"##################+++++++++++###################"
};
