/* XPM */
static char *evil_9[] = {
/* columns rows colors chars-per-pixel */
"48 48 14 1 ",
"  c black",
". c #401E5B",
"X c #124751",
"o c gray50",
"O c #94277B",
"+ c green",
"@ c #62328D",
"# c #C140A5",
"$ c #DD75BB",
"% c #8B4FC1",
"& c #228898",
"* c #55C4D7",
"= c #B480DB",
"- c #A2DFEA",
/* pixels */
"++++++++++++++++++++++++++++++++++++++++++++++++",
"++++++++++++++++++++++++++++++++++++++++++++++++",
"++++++++++++++++++++++++++++++++++++++++++++++++",
".....+++++++++++++++++++++++++++++++++++++.....+",
"+.@@@..+++++++++++++++++++++++++++++++++..@@@.++",
"++O@@@@..+++++++++++++++++++++++++++++..@@@@O+++",
"++O##@@%%..+++++++++++++++++++++++++..%%@@##O+++",
"+++O###@@%%.+++++++++++++++++++++++.%%@@###O++++",
"+++O$$$##@%%.&+++++++++++++++++++X.%%@##$$$O++++",
"+++O#$$$$#@%%.+++++++++++++++++++.%%@#$$$$#O++++",
"++++O$$$$$#@%%.+++X+++++++++X+++.%%@#$$$$$O+++++",
"++++O$$$####@%%.+XX+XX+++XX+XX+.%%@####$$$O+++++",
"++++O$#####@@@=%.X&XX&X+X&XX&X.%=@@@#####$O+++++",
"+++OO###@@@%%===%.&&X&&X&&X&*.%===%%@@@###OO++++",
"+++O##@@%%=======.&&&&&&&&&&*.=======%%@@##O++++",
"+++O@@%%@@@@%==%..&&&*&&&*&&&..%==%@@@@%%@@O++++",
"++.@%%@@####@=%.**&&***&&**&&&*.%=@####@@%%@.+++",
"+.@%@@#$$$$.@=.**&*-***&****&&**.=@.$$$$#@@%@.++",
".@@@#$$$$$#.%%.&&*--*-*******&&&.%%.#$$$$$#@@@.+",
".@O#$$$$$#@%%@.&&*-----******&&&.@%%@#$$$$$#O@.+",
".++O#$$$##@%@@.X&&*-*--******&&X.@@%@##$$$#O++.+",
"++++O#$##@%@.@X&&&**&*-***&**&&&X@.@%@##$#O+++++",
"+++++O$##@%..@X&X&&*&*****&*&&X&X@..%@##$O++++++",
"+++++O##@@@.O.X X&&&&&***&&&&&X X.O.@@@##O++++++",
"++++++O#@@.OOO .X &&&&&*&&X&& X. OOO.@@#O+++++++",
"++++++O@@.OO###. . &X&&&&&X& . O###OO.@@O+++++++",
"++++++O@.OO####O... X &&& X ..O#####OO.@O+++++++",
"+++++++@.O#####OO.@@ @ & @ @@.O######O.@++++++++",
"+++++++.OO#####O.@@@%%@ @%%@@@.O#####OO.++++++++",
"+++++++.++OO###.@@@%%%%%%%%%@@@.###OO++.++++++++",
"++++++++++++O#.@%@@%%%%%%%%%@@%@.#O+++++++++++++",
"+++++++++++++O.%%@@%%%@@@%%%@@%%.O++++++++++++++",
"++++++++++++++.%%@@@%@@@@@%@@@%%.+++++++++++++++",
"++++++++++++++X@@.@@@@@@@@@@@.@@X+++++++++++++++",
"++++++++++++++X&X.@@@OOOOO@@@.X&X+++++++++++++++",
"++++++++++++++X&X+.@O#O$O#O@.+X&X+++++++++++++++",
"+++++++++++++X&X+++.#$O$O$#.+++X&X++++++++++++++",
"++++++++++++X&&X++++O$#$#$O++++X&&X+++++++++++++",
"++++++++++++&**&+++++O#$#O+++++&**&+++++++++++++",
"++++++++++++ ** +++++O#$#O+++++ ** +++++++++++++",
"+++++++++++++  +++++++O$O+++++++  ++++++++++++++",
"++++++++++++++++++++++O$O+++++++++++++++++++++++",
"++++++++++++++++++++++ # +++++++++++++++++++++++",
"+++++++++++++++++++++++ ++++++++++++++++++++++++",
"++++++++++++++++++++++++++++++++++++++++++++++++",
"+++++++++++++++++++ooooooooo++++++++++++++++++++",
"+++++++++++++++++ooooooooooooo++++++++++++++++++",
"++++++++++++++++++ooooooooooo+++++++++++++++++++"
};
