/* XPM */
static char *evil_2[] = {
/* columns rows colors chars-per-pixel */
"48 48 22 1 ",
"  c black",
". c #29201E",
"X c #401E5B",
"o c #62114F",
"O c #124751",
"+ c gray50",
"@ c #94277B",
"# c green",
"$ c #AE8C07",
"% c #D49809",
"& c #FFD017",
"* c #62328D",
"= c #C140A5",
"- c #DD75BB",
"; c #8B4FC1",
": c #228898",
"> c #55C4D7",
", c gray60",
"< c #FFE89C",
"1 c #B480DB",
"2 c #A2DFEA",
"3 c #C5C5C5",
/* pixels */
"################################################",
"################################################",
"#######################o########################",
"######################o@o#######################",
"#####################@@=@o######################",
"#####################@@=@o######################",
"####################@=@=@@o#####################",
"###################X=*****@X####################",
"#############O####X**;;;;;**X####O##############",
"############:O###@X*;;;;;;;*Xo###OO#############",
"############:2O@@@:*;;;;;;;*O@ooO>O#############",
"############:22O@::*OO;;;OO*OO@O2>O#############",
"#######X##oo:>2>O:>:O:O*O:OO:OO2>:Ooo##X########",
"#######XX# O>>O2>:>:O>:O:>OO:O::O:OO #XX########",
"#######X*X* :>;O:>2>:>>:>>O:::OO*:: *X*X########",
"#######@*X*@O:;*:>22:>>>>:O:>:O**:O@*X*o########",
"#######@*** ::OO:>22>:>:>O:>>:OOO:: ***o########",
"######@=*;** :O:>:>22::::O>2>O>:O: ****@o#######",
"######@=*;*   :O>2222:O:O:222>>O:   ***@o#######",
"######@=*1**@X O:>>22>O:O>22>>:O X@****@o#######",
"###XXo=-*1* @@@O  :>>>:O:>>>:  O@@@ *;*@=oXX####",
"###X**@=*1 # --=O%  ::O*O::  %O@=@ # ;*@@**X####",
"####X11;;1 ## --X%< %OO*OO< $%X=@ ## 1;;;;X#####",
"####@*;111 # ==@X*&.&%*;*%&.&*X==@ # 111;*o#####",
"####@=*111 ## -- **;;11111;;** =@ #  11;*@o#####",
"####@=*1;1; ## -=   *;111;*   @@ ## ;1;**=o#####",
"####@-*1    ### @-X*  *;*  *X@= ###    *;=o#####",
"####@=*1 ######@--X;@,   ,@; @@@###### ;*=o#####",
"####@=*; #####     X@3@=@3;X:    ##### ;*@o#####",
"####@*;; ######## :X;=---=;X: ######## ;;*o#####",
"####X*; ######### >:XX;;;XXO: ######### ;*X#####",
"####X*; ########## >>:XXX::: ########## ;*X#####",
"####X;; ###########   : :   ########### ;;X#####",
"####X; ##############  #  ############## ;X#####",
"####X; ################################# ;X#####",
"#####X ################################# X######",
"#####X ################################# X######",
"#####X ################################# X######",
"#####X ################################# X######",
"###### ################################# #######",
"###### ################################# #######",
"################################################",
"################################################",
"################################################",
"################################################",
"####################+++++++#####################",
"##################+++++++++++###################",
"###################+++++++++####################"
};
