/* XPM */
static char *evil_5[] = {
/* columns rows colors chars-per-pixel */
"48 48 19 1 ",
"  c black",
". c #401E5B",
"X c #124751",
"o c gray50",
"O c #94277B",
"+ c green",
"@ c #D49809",
"# c #FFD017",
"$ c #62328D",
"% c #C140A5",
"& c #DD75BB",
"* c #8B4FC1",
"= c #228898",
"- c #55C4D7",
"; c gray60",
": c #FFE89C",
"> c #B480DB",
", c #A2DFEA",
"< c #C5C5C5",
/* pixels */
"++++++++++++++++++++++++++++++++++++++++++++++++",
"++++++++++++++++++++++++++++++++++++++++++++++++",
"++++++++++++++++++++++++++++++++++++++++++++++++",
"++++++++++++++++++++++++++++++++++++++++++++++++",
"++++++++++++++++++++++++++++++++++++++++++++++++",
"+++++++X++++++++++++X+++++++++++++++++++++++++++",
"++++++XX++++++++++++XX++++++++++++++++++++++++++",
"+++++X==X++++++++++X-X++++++++++++++++++++++++++",
"+++++X=XXX+++===++X-,=X+++++++++++++++++++++++++",
"+++++XX=X=X==-=++X-,--X+++++++++++++++++++++++++",
"++++X===X==--==XX=,,=-XXX ++++++++++++++++++++++",
"+++X=-=X=---==XX=-,-X--= ............+++++++++++",
"++X=--=X-,-==XX==-=X$-= $$$$$$$$$***$...OO++++++",
"++X--=X-,,-=XXXXX= $$= .$$$$$$$$$$****$O%%OO++++",
"++X--X=,,-=X=--=X= $$== *$$$$$$$$$$$$$$OOO%%OO++",
"+X=-=X-,,,,---=X= $$== .**OOOO$$$$$$..O%%   %%O+",
"+X==X=-,-----=X== OOOO  $*$O%%OOOO....O  +++  O+",
"+X==X=--==  XX== O&%OX..$**$%%%%%OOOO. +++++++ +",
"++  X==   @@$   %&%O=X.. $*$O%%%%OOO  +++XXX++++",
"+. @    :#@$$$OOOOO===X.. **$%%%%%OO $XXX=== +++",
"$$**$$@ #@$$$O%&&&%OOO  . *>$..........===== +++",
".>>>>>>****$OOO%&&&%O==X  $>***********.... ++++",
".*>>>*$   **$$OOOOOO=X  .. >>*OOOOOOOO*****.++++",
"+.**$  O;O *OO%&%==X  .$$. >>O%%%%%%%%OOOO   +++",
"++   OOO<O$$$OO%%%O=XXX    >>*O%%%%%%%%%O ++++++",
"+++ $O%%%O*$==      ==X O *>>..O%%&&&&%% +++++++",
"+++ $%&%O**$===-----=    *>>>>*..%%&&&%O +++++++",
"++++ $****$==-XX=--= O >>>>>>>>>*..%%&% ++++++++",
"+++++       =--     OOO   $>***>>>*..%O ++++++++",
"++++++X==X==--- .OOOOO  ++ >$OOOO****.. ++++++++",
"+++++++ ==X  =-= OOO  ++++ >$%%%%OOO***. +++++++",
"++++++++   ++     O ++++++ >$&&&%%%%OO**.+++++++",
"+++++++++++++ $.OO +++++++ >$&&&&%%%%%O**.++++++",
"+++++++++++++ $.O ++++++++ *$&&&&&%%     *.+++++",
"+++++++++++++ $. ++++++++ **$&&&%O  +++++  +++++",
"++++++++++++ $. +++++++++ *$%&&&O ++++++++++++++",
"++++++++++++ $ ++++++++++ *$%&&% +++++++++++++++",
"+++++++++++   +++++++++++ *$%&% ++++++++++++++++",
"+++++++++++++++++++++++++ *$%% +++++++++++++++++",
"+++++++++++++++++++++++++ *$% ++++++++++++++++++",
"+++++++++++++++++++++++++ *$ +++++++++++++++++++",
"++++++++++++++++++++++++ *$ ++++++++++++++++++++",
"++++++++++++++++++++++++ $ +++++++++++++++++++++",
"+++++++++++++++++++++++   ++++++++++++++++++++++",
"++++++++++++++++++++++++++++++++++++++++++++++++",
"++++++++++++++++++++ooooooo+++++++++++++++++++++",
"++++++++++++++++++ooooooooooo+++++++++++++++++++",
"+++++++++++++++++++ooooooooo++++++++++++++++++++"
};
