/* XPM */
static char *evil_4[] = {
/* columns rows colors chars-per-pixel */
"48 48 19 1 ",
"  c black",
". c #401E5B",
"X c #124751",
"o c gray50",
"O c #94277B",
"+ c green",
"@ c #D49809",
"# c #FFD017",
"$ c #62328D",
"% c #C140A5",
"& c #DD75BB",
"* c #8B4FC1",
"= c #228898",
"- c #55C4D7",
"; c gray60",
": c #FFE89C",
"> c #B480DB",
", c #A2DFEA",
"< c #C5C5C5",
/* pixels */
"++++++++++++++++++++++++++++++++++++++++++++++++",
"++++++++++++++++++++++++++++++++++++++++++++++++",
"++++++++++++++++++++++++++++++++++++++++++++++++",
"++++++++++++++++++++++++++++++++++++++++++++++++",
"++++++++++++++++++++++++++++++++++++++++++++++++",
"++++++++++++++++++++++++++++++++++++++++++++++++",
"++++++++++++++++++++++++++++++++++++++++++++++++",
"++++++++++++++++++++++++++++.......+++++++++++++",
"+++++++++++++++++++++++++...$$$.. ++++++++++++++",
"+++++++++++++++++++++....$$$...O +++++++++++++++",
"+++++++X+++++++++++.X$$$$...OOO ++++++++++++++++",
"++++++XX+++++++++..$XX$..OOOOO +++++++++++++++++",
"+++++X==X++++++..$$X-X.OO%%%OO +++++++++++++++++",
"+++++X=XXX+++===$$X-,=XO%%%OO +++++++++......+++",
"+++++XX=X=X==-=$$X-,--XOOOOOO +++++....$$$$ ++++",
"++++X===X==--==XX=,,=-XXX OOO ++...**$$$OO +++++",
"+++X=-=X=---==XX=-,-X--= .......***$$OOO% OOOOO+",
"++X=--=X-,-==XX==-=X$-= $$$..$***$$OO%%%% %%  ++",
"++X--=X-,,-=XXXXX= $$= .$..$***$$OO%%%&& O  ++++",
"++X--X=,,-=X=--=X= $$== .$*>*$$OO%%%&&&%  ++++++",
"+X=-=X-,,,,---=X= $$== .$>>*$OOO%%%&&&&  +++++++",
"+X==X=-,-----=X== OOOO $>>*$$....%%&&&& ++++++++",
"+X==X=--==  XX== O&%OX$>>>>>***$$...%%% ++++++++",
"++  X==   @@$   %&%O=X$>>**********$...++XXX++++",
"+. @    :#@$$$OOOOO===$>  $**$OOOOO***$..=== +++",
"$$**$$@ #@$$$O%&&&%OOO  OO $**$O%%%OOO**$..= +++",
".>>>>>>****$OOO%&&&%O==X OO **$O%%%%%%OO$$$.++++",
".*>>>*$   **$$OOOOOO=X  .....**$%&&&&%%%O  +++++",
"+.**$  O;O *OO%&%==X  .$$.  .$*$%&&&&&%  +++++++",
"++   OOO<O$$$OO%%%O=XXX   +++.*$%&&&&& +++++++++",
"+++ $%&%O**$==      ==X +++++.*$%&&&% ++++++++++",
"++++ $****$====-----=  ++++++.$*$&&% +++++++++++",
"+++++       =-XX=--= +++++++++.*$&% ++++++++++++",
"++++++X==X==---     ++++++++++.*$%% ++++++++++++",
"+++++++ ==X  =-= +++++++++++++.*$% +++++++++++++",
"++++++++   ++     ++++++++++++.*$% +++++++++++++",
"++++++++++++++++++++++++++++++.*$ ++++++++++++++",
"++++++++++++++++++++++++++++++.*$ ++++++++++++++",
"++++++++++++++++++++++++++++++.* +++++++++++++++",
"++++++++++++++++++++++++++++++.$ +++++++++++++++",
"++++++++++++++++++++++++++++++. ++++++++++++++++",
"++++++++++++++++++++++++++++++ +++++++++++++++++",
"++++++++++++++++++++++++++++++++++++++++++++++++",
"++++++++++++++++++++++++++++++++++++++++++++++++",
"++++++++++++++++++++++++++++++++++++++++++++++++",
"+++++++++++++++++++ooooooooo++++++++++++++++++++",
"+++++++++++++++++ooooooooooooo++++++++++++++++++",
"++++++++++++++++++ooooooooooo+++++++++++++++++++"
};
