/* XPM */
static char *evil_10[] = {
/* columns rows colors chars-per-pixel */
"48 48 14 1 ",
"  c black",
". c #401E5B",
"X c #124751",
"o c gray50",
"O c #94277B",
"+ c green",
"@ c #62328D",
"# c #C140A5",
"$ c #DD75BB",
"% c #8B4FC1",
"& c #228898",
"* c #55C4D7",
"= c #B480DB",
"- c #A2DFEA",
/* pixels */
"++++++++++++++++++++++++++++++++++++++++++++++++",
"++++++++++++++++++++++++++++++++++++++++++++++++",
"++++++++++++++++++++++++++++++++++++++++++++++++",
"++++++++++++++++++++++++++++++++++++++++++++++++",
"+++++++++++++&+++++++++++++++++++X++++++++++++++",
"++++++++++++&&+++++++++++++++++++XX+++++++++++++",
"++++++++++++&*&+++X+++++++++X+++X&X+++++++++++++",
"++++++++++++&-*X+XX+XX+++XX+XX+X*&X+++++++++++++",
"++++++++++++&--&XX&XX&X+X&XX&XX*-*X+++++++++++++",
"++++++++++ &*--*&&&&X&&X&&X&*X&--*XX +++++++++++",
"+++++++++++ &*-*&*&&&&&&&&&&*&*-**& ++++++++++++",
"++++++++++++X&****&&&*&&&*&&&*****X+++++++++++++",
"+++++++++++ &&****&&***&&**&&&***&& ++++++++++++",
"+++++++++..+ &&**&*-***&****&&**&& +..++++++++++",
"++++++++.@.++ &&&*--*-*******&&&& ++.@.+++++++++",
"++++++..@@.+OO &&*-----******&&& OO+.@@..+++++++",
"+++++.@@@%@..OOX&&*-*--******&&XOO..@%@@@.++++++",
"++++.@@@%%%@@.X&&&**&*-***&**&&&X.@@%%%@@@.+++++",
"+++.@O@%%O%@O@X&X&&*&*****&*&&X&X@O@%O%%@O@.++++",
"++.@O#@%OO%@OOX X&&&&&***&&&&&X XOO@%OO%@OO@.+++",
"++.@#@%%O#O%@O .X &&&&&*&&X&& X. O@%O#O%%@O@.+++",
"+.@O#@%O##O%@OO. . &X&&&&&X& . .OO@%O##O%@OO@.++",
"+.@#@%%O##O%@#OO... X &&& X ...OO#@%O##O%%@O@.++",
"+.@#@%O#$#O%@##OO.@@ @ & @ @@.OO##@%O#$#O%@O@.++",
".@O#@=O#$$O%@##O.@@@%%@ @%%@@@.O##@%O$$$O=@OO@.+",
".@##@=O$$$O=@##.@@@%%%%%%%%%@@@.##@=O$$$O=@#O@.+",
".@#$@=O$$$O=.#.@%@@%%%%%%%%%@@%@.#.=O$$$O=@#O@.+",
".@#$@=O$$#O=.#.%%@@%%%@@@%%%@@%%.#.=O#$$O=@#O@.+",
".@#$.=O#OOO%.O.%%@@@%@@@@@%@@@%%.O.%OOO#O=.#O@.+",
".@#$.=OO++@.++X@@.@@@@@@@@@@@.@@X++.@++OO=.#O@.+",
".@#$.%O+++@.++X&X.@@@OOOOO@@@.X&X++.@+++O%.#O@.+",
".@##.%@+++.+++X&X+.@O#O$O#O@.+X&X+++.+++@%.#O@.+",
".@#O+.@++++++X&X+++.#$O$O$#.+++X&X++++++@.+OO@.+",
".@O++.@+++++X&&X++++O$#$#$O++++X&&X+++++@.++O@.+",
"..++++.+++++&**&++++O##$##O++++&**&+++++.++++..+",
"..++++++++++ ** +++++O#$#O+++++ ** ++++++++++..+",
".++++++++++++  ++++++O#$#O++++++  ++++++++++++.+",
".+++++++++++++++++++++O$O+++++++++++++++++++++.+",
"++++++++++++++++++++++O$O+++++++++++++++++++++++",
"++++++++++++++++++++++O$O+++++++++++++++++++++++",
"++++++++++++++++++++++O$O+++++++++++++++++++++++",
"++++++++++++++++++++++ # +++++++++++++++++++++++",
"+++++++++++++++++++++++ ++++++++++++++++++++++++",
"++++++++++++++++++++++++++++++++++++++++++++++++",
"++++++++++++++++++++++++++++++++++++++++++++++++",
"+++++++++++++++++++ooooooooo++++++++++++++++++++",
"+++++++++++++++++ooooooooooooo++++++++++++++++++",
"++++++++++++++++++ooooooooooo+++++++++++++++++++"
};
