/* XPM */
static char *exit_open[] = {
/* columns rows colors chars-per-pixel */
"48 48 146 2 ",
"   c #010101",
".  c #070807",
"X  c #080807",
"o  c #050709",
"O  c #07090B",
"+  c #0B0C0B",
"@  c #150E05",
"#  c #0F100D",
"$  c #1E1307",
"%  c #13130E",
"&  c #0C0F12",
"*  c #0E1111",
"=  c #0E1318",
"-  c #141614",
";  c #181711",
":  c #171915",
">  c #1C1C15",
",  c #141919",
"<  c #1B1E1B",
"1  c #221306",
"2  c #221608",
"3  c #25190E",
"4  c #2A1B0A",
"5  c #341D09",
"6  c #2C1F12",
"7  c #1C201C",
"8  c #36240D",
"9  c #3B220A",
"0  c #3D280F",
"q  c #222016",
"w  c #23231B",
"e  c #2C2B1E",
"r  c #382710",
"t  c #3C2A11",
"y  c #312C1C",
"u  c #1B2121",
"i  c #232723",
"p  c #252924",
"a  c #2D2D23",
"s  c #2F3026",
"d  c #323225",
"f  c #363629",
"g  c #393728",
"h  c #3B3B2D",
"j  c #3D3F32",
"k  c #44260C",
"l  c #412A0F",
"z  c #49290C",
"x  c #542F0E",
"c  c #57310F",
"v  c #59320F",
"b  c #492F12",
"n  c #422E1B",
"m  c #4A3012",
"M  c #43311D",
"N  c #49331E",
"B  c #563815",
"V  c #5A3B16",
"C  c #5E3D18",
"Z  c #473520",
"A  c #4C3520",
"S  c #4D3A23",
"D  c #423E2B",
"F  c #523B23",
"G  c #634019",
"H  c #68431A",
"J  c #734A1C",
"K  c #7B4F1F",
"L  c #7C501F",
"P  c #47432E",
"I  c #4C452C",
"U  c #524026",
"Y  c #5E4127",
"T  c #564328",
"R  c #5A462A",
"E  c #5C492D",
"W  c #424233",
"Q  c #494734",
"!  c #4B4B3A",
"~  c #5B563B",
"^  c #6E4E20",
"/  c #634528",
"(  c #604C2F",
")  c #714F21",
"_  c #6E512F",
"`  c #725021",
"'  c #7A5524",
"]  c #634E31",
"[  c #675334",
"{  c #6A5334",
"}  c #6A5935",
"|  c #625839",
" . c #755230",
".. c #7A5533",
"X. c #7D5E38",
"o. c #6E613E",
"O. c #79673D",
"+. c #525240",
"@. c #5D5B44",
"#. c #655F42",
"$. c #6B6345",
"%. c #64644E",
"&. c #6F694B",
"*. c #6D635E",
"=. c #736F50",
"-. c #776E69",
";. c #815E27",
":. c #85682D",
">. c #8E682B",
",. c #9A6327",
"<. c #9F6628",
"1. c #80603A",
"2. c #A06728",
"3. c #8F6F42",
"4. c #917143",
"5. c #807854",
"6. c #A17F4F",
"7. c #897D77",
"8. c #BE8B3A",
"9. c #988A59",
"0. c #A38150",
"q. c #AD8956",
"w. c #B38E56",
"e. c #B28D58",
"r. c #B2915C",
"t. c #BFA05F",
"y. c #948A7E",
"u. c #C29741",
"i. c #C69B43",
"p. c #CC9F45",
"a. c #E2B657",
"s. c #C0A060",
"d. c #CFAF67",
"f. c #D3B268",
"g. c #C7AF70",
"h. c #C8B070",
"j. c #F0C76D",
"k. c #A69F91",
"l. c #B7A992",
"z. c #BCB39B",
"x. c #CDBE83",
"c. c #C0BAAB",
"v. c #CFC38E",
"b. c #D0C48F",
"n. c #D3C691",
"m. c #CFC7BE",
/* pixels */
"c.c.c.c.c.y.k.c.m.m.8.8.c.c.c.y.c.c.c.*.y.c.c.c.m.m.c.*.-.-.-.-.-.-.y.y.c.8.8.y.*.-.-.c.m.m.m.m.",
"m.c.c.c.c.y.y.k.k.8.a.p.8.c.y.y.z.l.c.c.-.y.c.c.z.z.k.y.c.m.m.7.-.-.-.-.8.a.p.8.*.-.-.c.m.m.m.m.",
"m.m.m.c.y.y.y.7.c.8.j.a.8.y.y.z.z.c.c.c.y.y.7.y.y.7.k.z.z.c.c.c.y.y.-.z.8.j.a.8.y.k.k.k.c.m.m.m.",
"m.c.k.y.k.k.k.7.y.p.j.j.8.7.l.c.z.c.c.l.y.7.7.y.c.z.z.c.c.c.c.m.y.y.z.z.p.j.j.8.m.m.m.m.c.k.c.m.",
"*.-.-.y.k.k.k.-.y.8.i.8.<.7.c.c.c.l.c.7.y.l.l.y.c.c.z.m.c.m.m.m.k.c.c.l.8.p.8.2.m.m.m.m.m.m.c.y.",
"k.z.-., 9.9.5.9.9.8.p.2...I U 5.9.9.9.9.9.9.9.9.9.9.9.9.=.5.9.9.9.9.9.9.8.p.2...h D 5.5.5.m.c.y.",
"c.z.z.< #.&.%.@.$.2.8.2...g d =.$.&.%.@.&.=.5.=.&.&.=.5.@.@.@.=.=.5.5.5.2.8.2...a a &.&.&.k.y.k.",
"m.z.z.- g h ~ ! ~ 2.2.<.c y d $.~ $.$.$.@.~ @.@.~ ~ ~ =.| ~ ~ ~ ~ ~ $.#.2.2.2.v e e $.$.~ c.m.c.",
"c.c.k.* w e h ! Q ..8...v w a +.! ! $.$.@.~ ! @.! +.! &.~ ! Q Q j j Q ! ..8.../ q w ! @.W y.m.m.",
"c.c.c.* < < q a W ..p.2.v 7 w Q j f f D j W ! Q j f g h f f W h s f h j ..p.2./ < > j j j y.c.m.",
"m.z.k.* & & & : , ..2...v O O = = = p i a d s p u = = u 7 = = = * = p p ..,.../ + O = = = k.c.c.",
"c.k.7.* - > > < w ..8...v + + & < D h d h h f g f f s s s w , & < d e a ..8...c > > f D W m.m.k.",
"c.c.m.& - - > > > ..u.,.v + + . * % % ; % % % % ; % # # + X X   % - > w ..i.,.x w y Q Q h m.m.m.",
"c.m.m.& * - w.{ _  .,. .c _ _ 1.1.1.1.{ _  . ._ _ _ 1.1.O._ _ _ _ _ _ _  .,. .x V 4.l P h m.m.m.",
"m.m.c.& - - f.X.X. .u.,.x 4.4.4.0.0.6.0.4.4.4.4.>.q.0.0.4.4.4.4.4.4.4.4. .u.,.x 4.w.k h f m.m.c.",
"y.y.7.O - , d.3.3.X. . .X.3.3.q.q.e.q.w.q.6.6.6.6.9.0.q.q.w.r.r.r.r.q.3.X. . .X.3.3.0 h p 7.k.k.",
"*.*.*.& - - n.g.s.s.s.s.s.s.s.g.g.g.s.s.s.s.s.s.s.s.s.t.s.h.h.h.h.g.s.s.s.s.s.s.s.s.b D a -.-.-.",
"*.z.c.O * - v.v.v.v.n.v.v.v.n.x.x.x.x.x.v.v.v.v.v.v.b.b.v.v.v.v.b.b.v.x.v.b.v.v.v.v.B P a c.-.*.",
"c.z.z.O & + ) ) ) ` ` ) ) ) ) ) ) ) ) ) ` ` ` J ` ` ` ` ` ` ` ` ` ` ` ) ^ ` ` ` ) ) 4 h a c.c.*.",
"z.z.z.O + & ^ ' ' ' ' ' ' ' ' ' ) ) ) ' ' ' ' ' ' ^ ^ ^ ^ ' ' ' ^ J ) ) ' ' ' ' ' ' 4 a a c.c.*.",
"c.z.z.O + & 5 t 0 t 0 0 l t k b b b l 0 0 0 l l 0 k l l l 0 l m m m m m 0 0 0 l 0 0 4 w s c.k.m.",
"k.z.z.O + & & + z b b b b b             X X . X X . . . . . .       X z b b m m z - - i w k.k.m.",
"c.k.k.O O X + + + z z z k                     .   .       .     . . X # z z z z % # % w q k.m.m.",
"m.c.z.O o O O O X F N F b                           .   . .             F F N z   + . O O c.m.m.",
"m.m.c.o . O o   X F Y / k .         .   . .   o . + + % + + + X X X . # N / / S + + + - - m.m.c.",
"m.m.m.o o o . o o Y K Y k     + X X X X X + + . # % % > q > > 3 > > 3 : / L / N + X > - - z.c.m.",
"m.m.m.o . . o   X A >.F A     X . . . . . . . . . + # % % % # % ; 3 ; ; N >.Y k X + - % % c.m.m.",
"m.m.m.        o   F >.J N     X . . . . .     . . . X + + X # # + + X + N >.J N X X + X . z.m.m.",
"m.m.c.  o   o     N J J N         .         .     X   + X X X X X X X X n J J N   . . . . y.y.m.",
"y.y.y.            F ;.F 9                               .         X .   n ;.F N           *.*.y.",
"y.y.7.            F :.H 5                                               n :.H n           *.*.*.",
"c.c.l.            A G A 5                                               A G N 5           k.*.c.",
"c.c.y.      { N M N C N 5 M M S S S S N M M M M M M S S S M M M M M M M Z V Z 5 8 R 4     k.7.m.",
"z.l.y.      O.S S n ^ V 5 U T T ( ( T T T T ( E ] E T T T U T T T T T T Z ^ V 5 T ] 2     7.-.7.",
"7.*.y.      O.F S N n n Z S U [ ( [ [ E E E ] ] [ [ { [ _ [ [ [ [ [ [ S Z n n Z F T 3     -.-.-.",
"-.7.c.      =.o.$.} } } } } } } o.o.} } } } } } } } } } } o.$.$.o.o.} } } } } } } } 2     l.l.-.",
"-.7.l.      &.&.&.&.&.=.&.&.&.$.$.$.&.$.&.&.&.&.&.&.&.&.&.&.&.&.&.&.&.$.&.&.&.&.&.&.4     l.l.y.",
"y.c.7.      t t t t t t t t t t t t 0 t r t t t t t t t t t t t t t t t t t t t t t @     l.y.l.",
"y.y.7.      8 t t t t t t t r t t t t t r r t t t t t t t t t t r t r t t t t t t t @     c.c.l.",
"7.y.c.      $ $ $ $ $ $ $ $ $ 2 2 3 2 $ $ $ 2 $ $ $ 2 $ $ 2 2 2 2 2 2 2 $ $ $ $ $ 2 @     c.k.y.",
"7.y.m.          2 2 2 2 2 2                                           1 2 2 2 1 2         y.y.7.",
"m.k.m.            2 1 1 1                                               1 1 1 1           y.c.m.",
"m.7.k.            3 3 3 1                                               3 3 3 1           c.c.c.",
"c.c.7.            3 6 6 $                                               3 8 6 $           c.c.c.",
"c.z.-.            3 3 3 $                                               3 3 3 1           c.l.z.",
"z.k.k.            3 6 6 $                                               3 6 3 $           l.z.z.",
"k.k.k.k.k.*.k.m.m.m.m.m.k.c.c.7.-.-.-.*.l.l.l.k.k.y.y.y.y.y.*.l.m.m.m.z.c.c.m.m.l.*.*.-.y.l.z.z.",
"k.c.c.c.k.*.c.m.m.m.m.m.c.m.m.7.-.-.*.*.l.c.c.k.m.m.y.y.y.*.*.*.7.y.z.k.c.c.m.m.l.*.-.y.k.k.y.y."
};
