/* XPM */
static char *exit_close[] = {
/* columns rows colors chars-per-pixel */
"48 48 200 2 ",
"   c black",
".  c #000100",
"X  c #010101",
"o  c #010102",
"O  c #010202",
"+  c #020202",
"@  c #030403",
"#  c #040403",
"$  c #030304",
"%  c #030404",
"&  c #040504",
"*  c #050605",
"=  c #060605",
"-  c #040506",
";  c #050606",
":  c #060706",
">  c #070807",
",  c #080807",
"<  c #050709",
"1  c #060708",
"2  c #070808",
"3  c #06080A",
"4  c #07090C",
"5  c #070A0D",
"6  c #080908",
"7  c #090A09",
"8  c #0B0B09",
"9  c #08090A",
"0  c #090B0B",
"q  c #0A0B0A",
"w  c #0B0C09",
"e  c #0B0C0A",
"r  c #0D0D09",
"t  c #0C0D0B",
"y  c #0D0E0B",
"u  c #0E0E0B",
"i  c #090B0D",
"p  c #080B0E",
"a  c #0A0C0D",
"s  c #090D0F",
"d  c #0B0D0E",
"f  c #0B0E0F",
"g  c #0C0D0D",
"h  c #0E0F0D",
"j  c #0C0F0F",
"k  c #0F100D",
"l  c #0E100F",
"z  c #12120D",
"x  c #10110F",
"c  c #11120F",
"v  c #13130F",
"b  c #15140F",
"n  c #17160F",
"m  c #0A0D10",
"M  c #0B0E12",
"N  c #0D0F11",
"B  c #0D1011",
"V  c #0F1111",
"C  c #0F1212",
"Z  c #0B1014",
"A  c #0E1318",
"S  c #101211",
"D  c #121310",
"F  c #111312",
"G  c #131411",
"H  c #111413",
"J  c #121513",
"K  c #151611",
"L  c #171711",
"P  c #141512",
"I  c #151613",
"U  c #161612",
"Y  c #101414",
"T  c #131514",
"R  c #111416",
"E  c #141614",
"W  c #151715",
"Q  c #161714",
"!  c #181711",
"~  c #171813",
"^  c #151815",
"/  c #171915",
"(  c #151816",
")  c #161916",
"_  c #171A17",
"`  c #181813",
"'  c #1B1A13",
"]  c #1D1A12",
"[  c #1E1C13",
"{  c #181914",
"}  c #1B1B14",
"|  c #181916",
" . c #181A16",
".. c #1A1B16",
"X. c #1B1C17",
"o. c #1D1D15",
"O. c #1E1D15",
"+. c #1C1D17",
"@. c #1E1E17",
"#. c #141919",
"$. c #181B18",
"%. c #181C19",
"&. c #1C1D18",
"*. c #1D1E18",
"=. c #1E1F19",
"-. c #1A1F1F",
";. c #1F2019",
":. c #1F221F",
">. c #222016",
",. c #212119",
"<. c #21211A",
"1. c #23231B",
"2. c #24241B",
"3. c #26251B",
"4. c #24251D",
"5. c #25261E",
"6. c #26261E",
"7. c #2A271B",
"8. c #29291F",
"9. c #2A2A1F",
"0. c #1B2121",
"q. c #212521",
"w. c #232723",
"e. c #272820",
"r. c #242925",
"t. c #2B2B21",
"y. c #2A2B22",
"u. c #2B2C23",
"i. c #2D2D21",
"p. c #2D2D22",
"a. c #2D2E25",
"s. c #2E2F25",
"d. c #2F3026",
"f. c #373423",
"g. c #303024",
"h. c #333124",
"j. c #303127",
"k. c #323226",
"l. c #333327",
"z. c #353326",
"x. c #343427",
"c. c #3A3625",
"v. c #3A3726",
"b. c #303228",
"n. c #353529",
"m. c #373729",
"M. c #37372A",
"N. c #38382B",
"B. c #3E3B28",
"V. c #38382C",
"C. c #3B3B2D",
"Z. c #3A3A2E",
"A. c #3C3C2F",
"S. c #3D3D30",
"D. c #3F3F31",
"F. c #3D3F32",
"G. c #413D2A",
"H. c #433F2B",
"J. c #42402F",
"K. c #45412D",
"L. c #46422D",
"P. c #47432E",
"I. c #434130",
"U. c #404032",
"Y. c #454331",
"T. c #474533",
"R. c #464634",
"E. c #4B4631",
"W. c #484633",
"Q. c #494734",
"!. c #4D4833",
"~. c #4F4A34",
"^. c #4B4B3A",
"/. c #504B35",
"(. c #514C35",
"). c #514C36",
"_. c #524D36",
"`. c #5B563B",
"'. c #615738",
"]. c #625839",
"[. c #525240",
"{. c #5D5B42",
"}. c #5C5C47",
"|. c #655F42",
" X c #696245",
".X c #64644E",
"XX c #6F6948",
"oX c #6D635E",
"OX c #736F50",
"+X c #776E69",
"@X c #807854",
"#X c #897D77",
"$X c #988A59",
"%X c #958A7D",
"&X c #948A7F",
"*X c #A69F91",
"=X c #B7A992",
"-X c #BCB39B",
";X c #C0BAAB",
":X c #CFC7BE",
/* pixels */
";X;X;X;X;X%X*X;X:X:X:X;X;X;X;X&X;X;X;XoX&X;X;X;X:X:X;XoX+X+X+X+X+X+X&X&X;X;X;X%XoX+X+X;X:X:X:X:X",
":X;X;X;X;X%X&X*X*X;X:X:X;X;X&X&X-X=X;X;X+X&X;X;X-X-X*X&X;X:X:X#X+X+X+X+X&X%X&XoXoX+X+X;X:X:X:X:X",
":X:X:X;X%X%X&X#X;X:X:X:X;X&X&X-X-X;X;X;X&X&X#X&X%X#X*X-X-X;X;X;X&X&X+X-X-X;X;X&X&X*X*X*X;X:X:X:X",
":X;X*X%X*X*X*X#X&X:X:X;X&X#X=X;X-X;X;X=X&X#X#X%X;X-X-X;X;X;X;X:X&X&X-X-X-X;X;X;X:X:X:X:X;X*X;X:X",
"oX+X+X%X*X*X*X+X#X%X%X#X#X#X-X;X;X=X;X#X&X=X=X%X;X;X;X;X;X;X:X:X%X;X;X-X-X-X;X:X:X:X:X:X:X:X;X%X",
"*X-X+X#.$X$X@X$X$X$X$X$X$X$X$X@X$X$X$X$X$X$X$X$X$X$X$X$X@X@X$X$X$X$X$X$X$X$X$X@X@X@X@X@X@X:X;X%X",
";X-X-X-.|.XX.X}.XXOX@XOX@XOXXXOXXXXX.X}.XX@X@XOXXXXXOX@X}.}.}.@X@X@X@X@X@X@XOXXX}.}.XXXXXX*X%X*X",
":X-X-XR f.Z.`.^.`.`.`.{.{.`. X X{.{. X X{.{.{.[.{.`.`.OX].`.`.`.`.`. X{.`.`. X^.`.`. X X`.;X:X;X",
";X;X*XR 5.9.Z.^.R.R.R.^.^.^.[.[.^.^. X X{.[.[.{.[.[.^. X`.[.R.R.F.F.R.^.^.R.R.^.R.^.^.{.R.&X:X:X",
";X;X;XB =.X.,.p.P.C.C.U.Q.U.Q.Q.C.m.m.U.U.U.Q.Q.C.j.m.C.m.m.U.C.j.m.C.C.C.m.C.m.C.m.C.U.U.&X;X:X",
":X;X*XC B B B ) #.0.0.A A A A A A A r.w.j.j.j.r.w.A A w.0.A A A A A w.r.w.r.w.A A A A A A *X;X;X",
";X&X#XC W  . .+.2.8.j.m.m.0.0.A w._.Q.C.Q.Q.U.U.U.U.U.C.U.m.0.A w.C.m.m.m.C.C.m.C.C.m.U.U.:X:X*X",
";X;X:XB T W X.X.X.6.t.).Q.U.U.A m.C.Q._._._._._._._._._.P.m.j.A m.j.C.U.C.Q._.Q.Q.].P.Q.C.:X:X:X",
";X:X:XN Y W  .,.X.X.1.z.(.).C.w.C.C.Q._._.'.)._._.].].].).).W.A m.m.Q._.).).P._.Q.P.P.L.C.:X:X:X",
":X:X;XN T W X. .,.+.+.9.v.T.m.A C.C.L.L.W.(.L.W.W.W.W.(.'.(.W.d.m.C.(.(.'.'.'.D.C.m.(.C.m.:X:X:X",
"%X%X#Xs E W E ( | ;.+.+.7.h.N.q.m.C.T.K.L.T.T.L.K.T.T.'.T./.D.d.m.d.C.L./.'./.T.K.C.L.C.d.&X&X&X",
"oXoXoXp H W T J ^ W *.X.*.3.e.q.N.N.N.N.x.N.Y.S.N.Y.~.~.~.H.S.s.x.s.s.s.b.S.~.~.Y.N.N.H.s.+X+X+X",
"oX-X;Xp V Y W W H E W /  .&.;._ Z.M.M.M.x.N.Y.!.A.N.M.A.!.!.x.q.M.a.Y.A.x.A.A.M.x.a.x.H.a.;X+XoX",
";X-X-X5 f j H E E H Q E X.X./ T 4.n.m.m.m.m.n.Z.Z.G.I.G.J.E.Z.u.J.m.m.Z.k.m.G.J.G.Z.m.G.u.;X;XoX",
"-X-X-X5 f j B V F F V F T ..Q F o.1.k.g.g.l.l.x.g.g.y.l.V.M.M.:.M.l.g.g.y.g.g.l.M.l.B.y.g.;X;X+X",
";X-X-X4 d d d j j F S S F F P d P } ,.s.p.g.i.v.n.v.c.v.v.g.n.Z e.g.p.p.e.i.p.p.e.e.e.e.p.;X*X:X",
"*X-X-X4 a d a d d j S l j S S a j G ` @.t.u.8.p.p.u.9.9.8.8.u.M 8.u.8.8.8.8.p.9.8.p.9.4.4.*X*X:X",
";X*X*X3 i 0 0 a a g j j g g d a d c x G U ;.<.<.<.<.<.<.<.<.$.m %.$.<.<.<.<.<.<.<.<.<.<.<.&X:X:X",
":X;X-X3 < < < < < 9 9 < 0 9 9 0 0 9 g g < 3 p p p p W ) W ( p p p p p p p p p p p Y Y p p ;X:X:X",
":X:X;X< 9 9 < - 2 9 7 7 7 q q q q e y t t t a 4 H @.;.;.;.@.o.o.@.@.@.@.H J H 4 { @.{ J I :X:X;X",
":X:X:X- 1 1 1 - 1 2 9 6 6 6 7 7 7 7 7 8 w e e 1 x D L ' >.O.[ O.O.[ >.` { ` ` K ` L { ~ K -X;X:X",
":X:X:X% ; : ; - ; ; ; ; 1 1 1 > > > 6 6 6 , 6 1 6 u x z v z k b ! ] n n n z h 0 z D v v x ;X:X:X",
":X:X:X$ % % % $ % % % % & % - * * * * : * * * - = ; 8 w 8 e r u 8 8 8 8 r q q 2 t y e q 9 -X:X:X",
":X:X;XO $ $ $ O $ $ $ $ $ $ $ $ $ # @ % @ $ $ @ @ @ % , , : : , , , , , : : : ; > * * : * &X&X:X",
"&X&X%Xo + + + o O + O + O O + + + + + + + + + + + + + @ # % % * & & & & % & @ % % @ @ @ % oXoX&X",
"%X%X#XX X X X X X X X X X X X X X X X X X X X X X X X X X + + + + + + + + + + O + + + + + oXoXoX",
";X;X=X  X X X   X X X               X X . .   X X X X X X X X X X X X X X X X X X X X X X *XoX;X",
";X;X&X                                                        X X         X X   X X       *X#X:X",
"-X=X&X                                                                                    #X+X#X",
"#XoX&X                                                                                    +X+X+X",
"+X#X;X                                                                                    =X=X+X",
"+X#X=X                                                                                    =X=X&X",
"&X;X#X                                                                                    =X&X=X",
"&X&X#X                                                                                    ;X;X=X",
"#X%X;X                                                                                    ;X*X%X",
"#X%X:X                                                                                    &X%X#X",
":X*X:X                                                                                    %X;X:X",
":X#X*X                                                                                    ;X;X;X",
";X;X#X                                                                                    ;X;X;X",
";X-X+X                                                                                    ;X=X-X",
"-X*X*X                                                                                    =X-X-X",
"*X*X*X*X*XoX*X:X:X:X:X:X*X;X;X#X+X+X+XoX=X=X=X*X*X%X&X&X&X%XoX=X:X:X:X-X;X;X:X:X=XoXoX+X%X=X-X-X",
"*X;X;X;X*XoX;X:X:X:X:X:X;X:X:X#X+X+XoXoX=X;X;X*X:X:X%X&X%XoXoXoX#X&X-X*X;X;X:X:X=XoX+X%X*X*X&X&X"
};
