/* XPM */
static char *collectible_normal[] = {
/* columns rows colors chars-per-pixel */
"48 48 233 2 ",
"   c #180A04",
".  c #1E1009",
"X  c #29190C",
"o  c #291914",
"O  c #341B10",
"+  c #37240F",
"@  c #2F2211",
"#  c #342213",
"$  c #3A2516",
"%  c #3B2A15",
"&  c #3C261A",
"*  c #3D2A1B",
"=  c #3D3016",
"-  c #3D2B21",
";  c #422D16",
":  c #432C1D",
">  c #43311B",
",  c #49351C",
"<  c #4D391D",
"1  c #563B1D",
"2  c #402720",
"3  c #442D23",
"4  c #453324",
"5  c #463527",
"6  c #4A3424",
"7  c #4D3A24",
"8  c #4C342A",
"9  c #4D392C",
"0  c #533C23",
"q  c #55382A",
"w  c #533A2C",
"e  c #533C32",
"r  c #583E31",
"t  c #5D431A",
"y  c #61451E",
"u  c #534125",
"i  c #5B4424",
"p  c #55422C",
"a  c #5C442D",
"s  c #5B4434",
"d  c #5D4A33",
"f  c #574638",
"g  c #5D4539",
"h  c #654727",
"j  c #644C2C",
"k  c #764D26",
"l  c #68512E",
"z  c #74562E",
"x  c #614634",
"c  c #624A33",
"v  c #684D32",
"b  c #61473A",
"n  c #634C3C",
"m  c #6B4C39",
"M  c #655132",
"N  c #6B5333",
"B  c #6F5A36",
"V  c #65543D",
"C  c #6C543C",
"Z  c #6D593B",
"A  c #735B34",
"S  c #7A5B37",
"D  c #74543C",
"F  c #725C3B",
"G  c #7B6E29",
"H  c #7D6336",
"J  c #75613E",
"K  c #7C633B",
"L  c #4F4743",
"P  c #524A45",
"I  c #544C48",
"U  c #5E5652",
"Y  c #674E42",
"T  c #665342",
"R  c #6A5443",
"E  c #6E5A44",
"W  c #6B5B4C",
"Q  c #725542",
"!  c #725B44",
"~  c #785945",
"^  c #745E4C",
"/  c #7A5D4A",
"(  c #645B56",
")  c #675E5A",
"_  c #785E52",
"`  c #7B6443",
"'  c #7B6748",
"]  c #7B644C",
"[  c #6D635E",
"{  c #7C6552",
"}  c #786959",
"|  c #756C65",
" . c #776E69",
".. c #7A756A",
"X. c #8A6A3D",
"o. c #836A43",
"O. c #85684B",
"+. c #84714A",
"@. c #8A754C",
"#. c #967C4D",
"$. c #806453",
"%. c #846A55",
"&. c #866B56",
"*. c #8B7753",
"=. c #87745B",
"-. c #8A735B",
";. c #8E785C",
":. c #937957",
">. c #A17D4F",
",. c #8B7966",
"<. c #867B6A",
"1. c #967B66",
"2. c #857B72",
"3. c #897D77",
"4. c #988249",
"5. c #9E8553",
"6. c #988457",
"7. c #9D8B54",
"8. c #A48746",
"9. c #BA954D",
"0. c #A58855",
"q. c #A18C5A",
"w. c #AB8B5D",
"e. c #B08C56",
"r. c #AE955D",
"t. c #A99858",
"y. c #B79759",
"u. c #BEA657",
"i. c #8C816E",
"p. c #9B8766",
"a. c #8A8273",
"s. c #8B8478",
"d. c #8D897D",
"f. c #9B8973",
"g. c #948A7E",
"h. c #98917D",
"j. c #A2856D",
"k. c #AC9262",
"l. c #A89766",
"z. c #B79863",
"x. c #BC9D6A",
"c. c #A48C73",
"v. c #A58C76",
"b. c #A99176",
"n. c #AC947C",
"m. c #B59B7D",
"M. c #B4997E",
"N. c #B9A768",
"B. c #BBA477",
"V. c #C29D53",
"C. c #C6A757",
"Z. c #CEB35B",
"A. c #C5A769",
"S. c #CDB36E",
"D. c #C9B373",
"F. c #C9B877",
"G. c #C6B47A",
"H. c #D4BA76",
"J. c #DCC16F",
"K. c #CFC37F",
"L. c #D9C576",
"P. c #E1D47E",
"I. c #938D81",
"U. c #989285",
"Y. c #9B958B",
"T. c #A89B86",
"R. c #B39C81",
"E. c #BA9E82",
"W. c #B79E89",
"Q. c #A69F91",
"!. c #AAA28C",
"~. c #BCA384",
"^. c #BCA48B",
"/. c #BCA78C",
"(. c #A7A092",
"). c #AAA49A",
"_. c #B7A992",
"`. c #B8AA97",
"'. c #BCB39B",
"]. c #B4ADA5",
"[. c #BBB5A8",
"{. c #BEB8A9",
"}. c #C2A889",
"|. c #C3AA8C",
" X c #CAB58C",
".X c #D2BD83",
"XX c #D8BB8A",
"oX c #C3AD94",
"OX c #C9AE96",
"+X c #C6B196",
"@X c #CBB496",
"#X c #CBB59B",
"$X c #CDB99B",
"%X c #D3BB93",
"&X c #D4B898",
"*X c #D3BC9E",
"=X c #CAB6A5",
"-X c #C0BAAB",
";X c #D2BCA2",
":X c #D2BEAA",
">X c #C6BEB5",
",X c #D9C887",
"<X c #D6C98C",
"1X c #DFD593",
"2X c #E0CA88",
"3X c #E4D785",
"4X c #E1D48B",
"5X c #E9CD93",
"6X c #E5D991",
"7X c #D7C3A3",
"8X c #DBC5A5",
"9X c #DCC5AB",
"0X c #DBC7AC",
"qX c #CFC7BE",
"wX c #DCC7B3",
"eX c #E6CDA5",
"rX c #E2CDAB",
"tX c #ECD3A8",
"yX c #F0D7AA",
"uX c #E2CCB3",
"iX c #E1CFBA",
"pX c #E5D2B5",
"aX c #EAD5B5",
"sX c #E5D2BA",
"dX c #EAD6BC",
"fX c #EDD9BE",
"gX c #F1DCB6",
"hX c #F3E2BC",
"jX c #E9D5C1",
"kX c #EDDBC3",
"lX c #F0DDC2",
"zX c #FAEAC6",
"xX c #FAECCE",
/* pixels */
"-X-X-X-X-Xg.Q.-XqXqXqX-X-X-X-Xg.-X-X-X[ I.-X-X-XqXqX-X)  . . . . . .I.g.-X-X-XI.)  . .-XqXqXqXqX",
"qX-X-X-X-Xg.g.Q.Q.-XqXqX-X-XI.I.oX`.-X-X .g.-X-X'.'.Q.g.-XqXqX3. . . . .g.g.I.) [ <. .-XqXqXqXqX",
"qXqXqX-Xg.g.g.3.{.qXqXqX-Xg.I.`.'.-X{.{.g.g.3.g.g.3.Q.'.+X-X-X-Xg.g. .'.'.-X-Xg.g.Q.Q.Q.-XqXqXqX",
"qX-XQ.g.Q.Q.Q.3.g.qX>X[.I.3._.-X'.p.&.j g.3.3.g.-X'.'.-X{.-X-XqXI.g.'.'.'.-X-X-XqXqXqXqX=XQ.>XqX",
"[  . .g.Q.Q.Q. .3.1 D ~ O.$.&.$._ 1.1.v s._._.g.-X-X-X-X{.{.qXqXg.-X-X'.'.'.-XqXqXqXqXqXqXqX-X3.",
"(.'. . .g.g.g. .x &X}.R.j.1.b.M.1.1.$X/ T.'.'.'.g.-X-X-X>X{.{. .'.-X-X-X-X-X-XqXqXqXqXqXqXqX-Xg.",
"-X'.'.'.[  . ./.q @X@XM.E.|.9X&X|.1.W.#X%.'.-X_.'.g.g.g.g.I. . .-X-X-X-X-X-X-XQ.qXqXqXqX-XQ.g.Q.",
"qX'.'.'.'.[ [ '.O / OXOXR.E.eX;X=XM.OXkX{ -X-X'.-X-XI.I.-X-XI. .-XqXqXqXqX-X-Xg.Q.-X-X-XQ.-XqX-X",
"-X-X(.'.'. . .g.g.q m.@XR.n.:XuXwXOXW.jX;Xm -X-X-X-XI.-X-X-X-XI.'.qXqXqXqXqX'.I.g.g.Q.g.I.I.qXqX",
"-X-X-Xg. . . . . .| $.|.^.v.#XsXjXjX^.uXW.b -X-XqX-Xg.+X-X-X-X-X3.g.qXqXqX{.g.I.g.Q.g.g.I.I.-XqX",
"qX{.(.3. .3.3. .I.3.6 E.=XR.^.uXjXjXiXOX=X,.qXqX-Xg. .Q.-X-X'.-X .[ g._._._.I.3.Q.Q.g.g.I.Q.{.{.",
"-Xg.3.3.3.g. .-X=X-Xs.O.;XOXW.:XkXkXiX;X:XOXr g.g.g. .g.Q.-X'.'.g.[  . .a.g. . .Q.Q.Q.Q.g.qXqXQ.",
"-X-XqX-Xg.g.'.-X-X-X{.I.E.wXW.#XsXlXjX:X+XjXP -XqXqXg. .g.Q.Q.Q.g.[  .3.Q.Q.Q.3.3.Q.Q.g.qXqXqXqX",
"-XqXqX-Xg. .'.-X-X-X-XY./ dX:XoX:XlXkXuX+XwXOXs -XqXg. .3.3.g.g. .| 3.g.Q.Q.g.3.3.3.3.g.qXqXqXqX",
"qXqX-Xg. . .3.qXqX-X-XQ.6 OXuXoXOXdXkXjX=X#XuXY g.g.g.g.qXqXqXqXg.|  .7 u u 0 6  .3.3.g.I.qXqXqX",
"g.g.3. .[ [ g.3.qX-X-X-Xd.Q sXOXoXuXkXjX0XoX9X,.O 6 4 3 h : h 0 h j j d A B A x 8  .[ 3.I.I.I.I.",
"[ [ [ [ [ [ g.I.3.-XqX-XY.8 |.0X=X=XfXlXiX'.8X+Xa 7 f E ` H A B S H J J +.6.-.! > qX{.-X.. . . .",
"[ '.-X{.'._.g.h h h h h $   ] aX;XOXaXlXfX:X@X0XR & > p d M j j N l M u M K K Z > qX-XqXqX{. .[ ",
"-X'.'.t t h h H.H.S.A.e.>.] 4 /.aX9X9XlXfXpXoXrX^.W a s f w 6 7 a d M M B +.@.@.M # qXqXqX{.{.[ ",
"'.'.t H.C.C.F.F.H.S.C.A.#.v & V fXpX9XdXfXsX=X*X8X_ r g e V %.d s p c n M V f.:.*.# qXqXqX{.{. .",
"-X'.y J.L.L.C.N.t.t.t.0.4.' 6 X }.fX0XsXfXsX;XE.7Xv.g s e { f.^.W.] n s T =.,.p.p.8 qXqXqX{.Q.qX",
"Q.'.t 8.8.Z.Z.Z.<X,XK.N.q.@.B % Q hXjXpXfXjXuX/.^.7XT s 6 ^ f.M.&X@Xc.O.9 R ^ E g 9 qXqX7X(.Q.qX",
"{.(.a.i 8.P.3X3XP.3XC.l.l.G Z > $ /.xX/.gXfXdX;X^.$Xv.e s g f./.oX@XE.j.V s q q - 7 g.g.I.I.qXqX",
"qX{._.f.J 1X4XP.1X3XL.t.C.y.` d O %.fX7X/.hXkXpXoXoX$Xb 9 8 ] @X$X$XE.1.m D x 1 = 7 , , Q.[.qXqX",
"qXqX{.0 X.Z.Z.F.L.S.x.H.D.D.' { O g $XaX}.eXzXlX$XR.@XR.3 & e } @X#XE.$.m Q O.v # X.X.h 0 qXqX-X",
"qXqXqX1 y..XXX,X2X.X%X.X Xx.;.9 # : b.rX*X@X%XzXuXf.b.+X{ 3 8 e f.$XE.~ m O.O.q 0 X.X.< , '.-XqX",
"qXqXqXt A.V.2X2X,X.XF.B.+.V V   O + Y 7X8XE. XxXzX+X,.|.b.* 8 8 b W.b.Q D D v q S S j + + ).>XqX",
"qXqXqX).0 9.y.7.0.q.6.N h > . ;.` . m E.eX&Xn.<XxXhXj.b.R.g e 8 3 &.;.D D D 6 k q.5.M > % i.].qX",
"qXqX-Xg.[ z N z k k < * = o p.=.V O f -.8XeX&.B.zXgX&X;.=.b 8 4 7 7 $.C D p ` :.@.D o.o.0 [ <.qX",
"g.g.g.g.2.) I I U ).Q.U.d 7X/.c.E : d ] ~.tX5Xj.tXtX&X$.g e w 3 w 6 0 x s ' 7.w.z.x.w.S % L ( d.",
"g.g.3.3. .[ [  . .g.{.%.8X@Xm.+X,.w O ^ c.eXtX-.E. X%.g b b 9 6 * * M N *.l.D.A.A.#.S 1 % L ( [ ",
"-X-X/.g.g.3.3. . . .;.rXeX}.%XzXb.f 9 ~ -.tXyXOX-.Q r n Q b 3 0 N K o.7.z.B.B.0.S 0 0 % < ..) -X",
"-X-Xg.g.g.3.-X-X-X/ rXgX%X XhXgXb.,.x R %.oXE.-.g q s m p 9 c H 8.q.l.e.r.k.#.v < * = ; U.d.3.qX",
"'._.g.g.3.-X-X-XE uXhX%XXXgXxX@XB.~.C w $.m.^ 8 q q r 3 a +.0.u.8.4.e.r.o.B 7 % % % [ [ a.3.| 3.",
"3.[ g.'.-X-X-X: { #X@X}.8XzX8Xc.~.B.Q 9 n 9 3 q r 3 8 ! *.N.0.t.0.r.0.A 7 > % % i.<.h._._. . . .",
" .3.-X-X-X-X; * 8 d ` } ,.=.' ^ ,.~ s 3 ; 8 q r 8 V 6.q.w.0.N.D.N.@.l % % % ..i.i.!./._._._._. .",
" .3._.-X-XQ.[.[ - 5 s n d f T T g 8 3 * : r w f =.l.z.7.z.D.,X7.` , % = a.<.i.!.'.'._._._._._.g.",
"g.-X3._.Q.Q.qXqXI.f 4 e T ] } ^ 8 8 8 & : 9 b p.p.k.#.G.1XG.7.B 6 6 d.i.h._._.'.'._._._._._.I._.",
"g.g.3.3.3.g.g.g.3. .T.f - 8 R W e ] X.r : D B.#.e.z.4XK.N.S B p , d.U.].{.-X_._._._._._._.-X-X_.",
"3.g.-X-X_.3.3.3. . ._.{.3.& - | 2 o.w.#.:.k.z.A.4X6XN.+.a , > 7 Y.[.{.{.-X-X_._._.'.'._.g.-XQ.g.",
"3.g.qX-X-X'.Q.Q.).| g._.-X`.W } * J J :.w.A.2X6X4X4.o.p > % g.).qXqXqX-X-XqX'._._._._.'.g.g.g.3.",
"qXQ.qXqX-X'.'.Q.Q. . .3.3.g.3.I.3 p.x.z.D.4X4XN.K ` = & ( P a.qXqXqXqXqXqX'.g.qXqX-X-Xg.g.g.-XqX",
"qX3.Q.qXqX-XQ.3.3.g.g.3.[ [ [ 3.p t.u.<X,XD.7.u , * % ( I [ [ g.-XqXqX-X'.3.g.qX-X-X-Xg.g.-X-X-X",
"-X-X3.Q.Q.g.g.g.{.{.-X(.g.[ 3.3.f F.B.l.7.` J * @ L L | s.g.[ [ 3.2.g.g.g._._.'.'.Q.g.g.+X-X-X-X",
"-X'. . .[ [ [ -X-X-X-X-X{.Q.3.g.= o.K F Z 7 @ O L P ..I.g.g.3.[ -X-X-X-X-X(.I._.g.g.3.3.'.{._.'.",
"+X(.(.(.[ [ I.-XqXqXqX-X{.).Q. .< M V T d 5 <.2.U 3.I.I.g.g.g.-XqXqX-X-X'._.Q._./.g.3.3._._.'.'.",
"(.(.(.(.(.[ (.qXqXqXqXqX(.{.{.3. .< p u > i.,.T.Q.g.I.I.I.g.[ _.qXqXqX'.-X-XqXqX_.[ [  .g._.'.'.",
"(.-X{.{.(.[ -XqXqXqXqXqX{.qXqX3. .| [ P i.(.-XQ.qXqXg.g.g.[ [ [ 3.g.'.Q.-X{.qXqX_.[  .g.Q.Q.I.g."
};
