/* XPM */
static char *collectible_collected[] = {
/* columns rows colors chars-per-pixel */
"48 48 10 1 ",
"  c #6D635E",
". c #776E69",
"X c #897D77",
"o c #958A7D",
"O c #948A7F",
"+ c #A69F91",
"@ c #B7A992",
"# c #BCB39B",
"$ c #C0BAAB",
"% c #CFC7BE",
/* pixels */
"$$$$$o+$%%%$$$$O$$$ O$$$%%$ ......OO$$$o ..$%%%%",
"%$$$$oO++$%%$$OO#@$$.O$$##+O$%%X....OoO  ..$%%%%",
"%%%$ooOX$%%%$OO##$$$OOXOoX+##$$$OO.##$$OO+++$%%%",
"%$+o+++XO%%$OX@$#$$@OXXo$##$$$$%OO###$$$%%%%$+$%",
" ..o+++.XooXXX#$$@$XO@@o$$$$$$%%o$$###$%%%%%%%$o",
"+#..ooo.#$$$XXo#$#XO+###o$$$$$$.#$$$$$$%%%%%%%$o",
"$### ..@$$$$##. XXO+##$@#oOOoo..$$$$$$$+%%%%$+o+",
"%####  #$$$$$#O o@@#$$$#$$OO$$O.$%%%%$$O+$$$+$%$",
"$$+##..oO$$$#OX.X@#$$$$$$$O$$$$O#%%%%%#OOo+OOO%%",
"$$$O.....oOOOX...O$$$$$$%$o#$$$$Xo%%%$OOO+OOOO$%",
"%$+X.XX.oO++++@@OOo+$$%%$o.+$$#$. o@@@OX++OOO+$$",
"$OXXXo.$$$+++@@@@@@#++OOOo.o+$##O ..Xo..++++O%%+",
"$$%$oo#$$$$$@###@@###++$%%o.o+++o .X+++XX++O%%%%",
"$%%$O.#$$$$+######@###X$$%o.XXoo..Xo++OXXXXO%%%%",
"%%$o..X%%$$+#####@###@XXOOoO%%%%O..XoOO..XXoO%%%",
"ooX.  OX%$$$$$##@@@#@Oo..o%%%%%%%++oXXX... XOOOO",
"      OOX$%$$$##@@@@OO@..$%%%%%%%+++oXXO%%$$....",
" #$$#@ooX#%%$##@#$$$@@@.$$$%%%%$++$$#X+%%%$%%$. ",
"$##+@@@@XX#%%##$$$$$$@@.#$%%%%%%%%$$#.%%$%%%%$$ ",
"####++@@@XXo##@$$$%$+@XXO#%%%%%%%%%##.$#%%%%%$$.",
"$###+++@@#ooO@@@%%$+OXXXoO#%%%%%%%%$o.O@%%%%%$+%",
"+##+++#$$$$OoOOo+++.XooooXO#$%%%%%$oo..o@$%%$++%",
"$++++$$$$$$O$%%Oo..o##@OOOXO+++###@o..o..oOOOO%%",
"%$##+$$$$%+o$%%@..X$$$$@@@@%$+ooo.XX.o###OOO+$%%",
"%%$##+$$%++..@@O.X$$$$$$#@@##%%$....O#####$#+%%$",
"%%%$##%%++o   ..XX%%%%$$##++$%%$o...O####$$$$#$%",
"%%%$#%%%#O.+++OOXX$%%%$$$$$$o%%o@@  XO##$$$$$$%%",
"%%%$%%%OO.$$$$#OXX+$%$$$$$#$$OO#$$#@@Xo+$$$#+#%%",
"%%$oOOOo.%%%$$$+$%$+$$$$$$#$%o$$$$$#@o..o++OOOO%",
"OOooX.  .%%$$$$#%%%O+$$$%%@XXo%%%$$$OX  .OO.   O",
"ooXX.  ..O$$$$%%%%%OXo++OoXXoO%%%%%$o  oO###o   ",
"$$@ooXX...O$$%%%%%%+XXo...@OOO@%%%%o.. oO##%$+ $",
"$$OooX$$$$.O$$%%%%+OOXX..@@@@@O@@+o..X. .X#$%+X%",
"#@OoX$$$$$$.oOOoXXO#@OoX.##@@@@o...X#@@@#OoOOX.X",
"X O#$$$$$$$..Xooo@$$$@oX ####@@XXO#######@@@@...",
".X$$$$+$$$#..XooO%%$$@o  .###@Xo$#####@@@@@@@@@.",
".X@$$+$$%+oO$$$oO%%$@ooo ..ooOO$$$###@@###@@@@@O",
"O$X@++%%+O#$$%%%#X.XO$$##o..oO$$$$$###@##@@@@@O@",
"OOXXXoOOX.###%%%%O.#$$$#$$$# $$$$$$$$$@@@@@@@$$@",
"Xo$$@XXX..@$$#%%#OX$$%%$$$$# $$$%%$$$$@@@##@O$+o",
"Xo%$$#+++.o@$$@@@oX$%%%$%%$+oO$%%%%$$%#@@@@#OOoX",
"%+%%$##++..XXoXoOooOO%$%%%$XX o%%%%%%#O%%$$Ooo$%",
"%X+%%$+XXooX   XXXX XO+#$%oX   o$%%$#Xo%$$$oo$$$",
"$$X++ooo$$$+o XXO++X XXoo  Xoo  XXooo@@##+oo#$$$",
"$#..   $$$$$$+Xo++++      XOOoX $$$$$+O@ooXX#$@#",
"#+++  o$%%%$$++.o++X @@@ XOOOoo$%%$$#@+@@oXX@@##",
"+++++ +%%%%%+$$X... @@@++oOOOo @%%%#$$%%@  .o@##",
"+$$$+ $%%%%%$%%X..  @$$+%%oOo   XO#+$$%%@ .o++OO"
};
