/* XPM */
static char *player_0[] = {
/* columns rows colors chars-per-pixel */
"48 48 63 1 ",
"  c black",
". c #070707",
"X c #0B0B0B",
"o c gray5",
"O c #040B16",
"+ c #0F0F10",
"@ c #121313",
"# c gray10",
"$ c #1B1B1A",
"% c #1B1B1B",
"& c #261F1A",
"* c #09162B",
"= c #0B1D39",
"- c #0F2631",
"; c #0C203E",
": c #2B2C2B",
"> c #352D26",
", c #593D15",
"< c #623C02",
"1 c #493D34",
"2 c #3B403B",
"3 c #103660",
"4 c #103A65",
"5 c #0F4777",
"6 c #0F4C7C",
"7 c #0F4F7F",
"8 c #4C4C4C",
"9 c gray37",
"0 c #705C4E",
"q c #616760",
"w c gray46",
"e c #882E00",
"r c #964B1F",
"t c #81571F",
"y c #BF6500",
"u c #AD7203",
"i c #AF7629",
"p c #AF762A",
"a c #B36739",
"s c green",
"d c #E08517",
"f c #FFBF17",
"g c #FFD017",
"h c #978F71",
"j c #D69C50",
"k c #EA9777",
"l c #0F6C9C",
"z c #137CA9",
"x c #2669A6",
"c c #29A1C1",
"v c #3EBCD0",
"b c #68B8FF",
"n c #66E0E5",
"m c #80929D",
"M c #AFA992",
"N c gray66",
"B c #C4BFAC",
"V c #F9C19D",
"C c #FFEC9D",
"Z c #BEC8D0",
"A c #FBDCC8",
"S c #E6E6E6",
"D c white",
/* pixels */
"ssssssssssssssssssssss@@@@....ssssssssssssssssss",
"sssssssssssssssssss@@@$:::$$@@..ssssssssssssssss",
"sssssssssssssssss@@$:::::::$$$$@.sssssssssssssss",
"sssssssssssssss@@$::::::::$$$$$@@.ssssssssssssss",
"ssssssssssss@@@$::::::::$$$$$$@@@.ssssssssssssss",
"sssssssssww@$::::::$$$$$$$$$$$@@@@.sssssssssssss",
"ssssswwwwSS@:::::::::$$$$@@$$$$@@@.,,,,,,sssssss",
"ssssu NSSSS@$::::::$$$$$@@@@$$$$@@.tttttt,,,,,,s",
"ssssug wNNNw@$$$$$$$$$$@..@$$$$$$@@.XXXXtttttt,s",
"sssss<<  www@$$$$$$$$@  .@@@@@$$$@@.&XXXXX@@tt,s",
"sssssusso    @@@@@@   XX@@@@$$$$$@@&&XXX@@@@tt,s",
"ssssug<sso&&&      XXXX@@@@$$$$$@&&>&.@@@@@tt ss",
"ssssug<@@@&>11111888XX@@&&&&&&&&&1>..@@@@@ttt ss",
"ttt@uC<$$@ >10018S  &&&&&0&1111&1..$@@@@@ttt sss",
" pi$   $::$ 1008S  00001&0&111...$$@@@@tttt ssss",
" ij::::::$@@  1 S &0&1&1&1....@$$$@@tttttt sssss",
"s jj:::::$@@@@  w8&0001...@$$$$$tttttttt  ssssss",
"s ijj:::::$@%$$@ w8& ..@$$$$iiitttttt   ssssssss",
"ss ijj::::::$$@@@   @$$$$$iiiittt    ossssssssss",
"sss ijjj:::::::$$$$$$$$$iiiit    o2222osssssssss",
"ssss ijjjjj::::::::$$$iiiit  ro22o 2222oosssssss",
"sssss  ijjjjjjjjjjjjjiiit  r   o2oo     ssssssss",
"sssssss   iiiiiiiiiiit   oa x  M  oVk ssssssssss",
"ssssssssss            VVookM- -DMooa sssssssssss",
"sssssssssss o ++###+ AVVVAkDx xDMao ssssssssssss",
"sssssssssss  +9++++ VAAAAAVDbbbDkoo ssssssssssss",
"sssssssssss  ++    AAAAAAAAAAVVkkoo ssssssssssss",
"sssssssssss o  kVVV2qqqkqqq2VVVko2o ssssssssssss",
"sssssssssss  222o22qqq2o2qqq22oo22  ssssssssssss",
"ssssssssssss o2q2o222ooVoo222o2q2o sssssssssssss",
"ssssssssssss* o2q2ooo2qqq2ooo2q2o *sssssssssssss",
"sssssssssss*77  qqqqqqqqqqqqqqq  B7*ssssssssssss",
"sssssssssss*3773   qqqqqqqqq   37B3*ssssssssssss",
"sssssssssss*377;**;         ;**;77h*ssssssssssss",
"sssssssssss*37;*O37z3dyfff3z73O*;73*ssssssssssss",
"sssssssssss 33** *;z77fz777z;* **33 ssssssssssss",
"ssssssssss ****  *3z7f33377z3*  **** sssssssssss",
"sssssssssedf*d l 66666DDZ6hBBB l d*fdessssssssss",
"sssssssss*37f3 l hBBhZDhZhhDDD l 3f73*ssssssssss",
"sssssssss6hB7h        mmm hDDD   h7Bh6ssssssssss",
"sssssssss       O*733f   3 fDfO       ssssssssss",
"sssssssssrkk  l *3z77df7z77 f * l  kkrssssssssss",
"ssssssssss   v 377z77df7z777 773 v   sssssssssss",
"ssssssssssss5v *33z77d f7z77z33* v5sssssssssssss",
"ssssssssss55nneyddfff   fffffddyenn55sssssssssss",
"sssssssssss55l                   l55ssssssssssss",
"sssssssssssss     =44=   =44=     ssssssssssssss",
"sssssssssssssssss 4cc4 s 4cc4 ssssssssssssssssss"
};
