/* XPM */
static char *player_7[] = {
/* columns rows colors chars-per-pixel */
"48 48 57 1 ",
"  c black",
". c #070707",
"X c #0B0B0B",
"o c gray5",
"O c #040B16",
"+ c #0F0F10",
"@ c #121313",
"# c gray10",
"$ c #1B1B1A",
"% c #261F1A",
"& c #09162B",
"* c #0B1D39",
"= c #0C203E",
"- c #2B2C2B",
"; c #352D26",
": c #593D15",
"> c #5A3E16",
", c #623C02",
"< c #493D34",
"1 c #3B403B",
"2 c #103660",
"3 c #103A65",
"4 c #0F4777",
"5 c #0F4C7C",
"6 c #0F4F7F",
"7 c #4C4C4C",
"8 c gray37",
"9 c #705C4E",
"0 c #616760",
"q c gray46",
"w c #882E00",
"e c #964B1F",
"r c #81571F",
"t c #BF6500",
"y c #AD7203",
"u c #AF7629",
"i c #B36739",
"p c green",
"a c #E08517",
"s c #FFBF17",
"d c #FFD017",
"f c #978F71",
"g c #D69C50",
"h c #EA9777",
"j c #0F5889",
"k c #0F6C9C",
"l c #137CA9",
"z c #3EBCD0",
"x c #66E0E5",
"c c #80929D",
"v c gray66",
"b c #C4BFAC",
"n c #F9C19D",
"m c #FFEC9D",
"M c #BEC8D0",
"N c #FBDCC8",
"B c #E6E6E6",
/* pixels */
"pppppppppppppppppppppppppppppppppppppppppppppppp",
"pppppppppppppppp.....@@@@ppppppppppppppppppppppp",
"pppppppppppppp..@@$$----$@@@pppppppppppppppppppp",
"ppppppppppppp.@@$$$$$$------@@pppppppppppppppppp",
"pppppppppppp.@@$$$$$$$$$-----$@@pppppppppppppppp",
"pppppppppppp.@@$$$$$$$$$$$$----$@ppppppppppppppp",
"ppppppppppp.@@@@@$$$$$$$$-------$@qqqppppppppppp",
"ppppppppppp.@@@@$$$$@@$$$$-------$@Bvqqqqppppppp",
"ppppppppppp.@@@$$$$@@@@$$$$$------@BBBBv ypppppp",
"pppppppp:::.@@$$$$$$$@@..@$$$$$$$$@vvvq dypppppp",
":>::::::rr%.@@$$$$$@@@@@.  @$$$$$@qq   ,,ppppppp",
":rrrrrrrXX%%@@$$$$$$@@@@@XX        ;%1pypppppppp",
" rr@@XXXXX%;%%@$$$$$$@@@@@XXXXX   <%%1yd,ppppppp",
" rr@@@@@XX%;;<%%%@$$$$$@@@@XXX%7q <; @yd,ppppppp",
" :r@@@@@@. ;;<<99%%%%%%%%%%%%%<7B ; @@ym,@pppppp",
"p rr@@@@@@@ ;<<<999999999<<<<<<7B7  $$   $@@@rrp",
"p rrr@@@@@@@  <<<<999999999<<<< qq @@$$$$$$$uu p",
"pp rrr@@@@@@@@   <<<<<<<<<<<<<    @@@@$----ggu p",
"ppp  rrr@@@@@$$$@             @@@@@@$-----ggg pp",
"ppppp rrrrr@@@@$$$$$$$$$$$$$$$$---------gggg ppp",
"pppppp  rrrrrr@@@$$$$$$$$$$----------gggggu pppp",
"pppppppp    rrrrr@@$$$$$$$$$$$$---ggggggu  ppppp",
"ppppppppp o1   rrrrruuuuuuuuuugggggggu   ppppppp",
"ppppppppp o1101   rrruuuuuuuuuuuuuu   pppppppppp",
"ppppppppp o11111 i                 ppppppppppppp",
"pppppppppp 1o111o io1onnn +#####+ ippppppppppppp",
"pppppppppp 1+111oo 11onnn ++###+ Nnipppppppppppp",
"pppppppppp oo+111o 11onn +8++++ NNnipppppppppppp",
"ppppppppppp o1++1o 101o+ ++    N1001pppppppppppp",
"ppppppppppp oo1o++####+++  nno11001opppppppppppp",
"pppppppppppp o1o1iO 100001oooooo111opppppppppppp",
"ppppppppppppp o o O 110000000001oooppppppppppppp",
"ppppppppppppp  p wwa 110000000001 pppppppppppppp",
"pppppppppppppp p&2666  111000001 ppppppppppppppp",
"ppppppppppppppp&&6666==         pppppppppppppppp",
"ppppppppppppppp&26662&  2ss==Obppppppppppppppppp",
"ppppppppppppppp&2222& &&&=lssawepppppppppppppppp",
"ppppppppppppppwa262& &&&=6l62awieppppppppppppppp",
"pppppppppppppp&2s2aw555555555Mchiepppppppppppppp",
"pppppppppppppp5f6s2&ffffbbbfMM5heepppppppppppppp",
"ppppppppppppp4  b6f5         cci ppppppppppppppp",
"ppppppppppppp4 h    &&=66l66s   pppppppppppppppp",
"pppppppppppp4kx hi 222666l66s pppppppppppppppppp",
"pppppppppp44kzxx  6666lllll66s ppppppppppppppppp",
"pppppppp44kzxxxxzwt2222666lsss ppppppppppppppppp",
"ppppp444kzxxxxzz4  aaaassss   *ppppppppppppppppp",
"pppppp  zzzzzzzk pp        jj3*ppppppppppppppppp",
"pppppppp        pppp*333* 33**pppppppppppppppppp"
};
