/* XPM */
static char *player_5[] = {
/* columns rows colors chars-per-pixel */
"48 48 48 1 ",
"  c black",
". c #010101",
"X c #040404",
"o c #070707",
"O c #0B0B0B",
"+ c gray5",
"@ c #0F0F10",
"# c #121313",
"$ c gray10",
"% c #1B1B1A",
"& c #261F1A",
"* c #09162B",
"= c #2B2C2B",
"- c #352D26",
"; c #313030",
": c #593D15",
"> c #623C02",
", c #493D34",
"< c #3B403B",
"1 c #103660",
"2 c #0F4777",
"3 c #0F4C7C",
"4 c #0F4F7F",
"5 c #4C4C4C",
"6 c #705C4E",
"7 c #616760",
"8 c gray46",
"9 c #964B1F",
"0 c #81571F",
"q c #BF6500",
"w c #AD7203",
"e c #AF7629",
"r c #AF762A",
"t c #B36739",
"y c green",
"u c #E08517",
"i c #FFBF17",
"p c #978F71",
"a c #D69C50",
"s c #EA9777",
"d c #0F6C9C",
"f c #3EBCD0",
"g c #66E0E5",
"h c gray66",
"j c #C4BFAC",
"k c #F9C19D",
"l c #97F1F1",
"z c #FBDCC8",
/* pixels */
"yyyyyyyyyyyyyyyyyyyyyyyyyyyyyyyyyyyyyyyyyyyyyyyy",
"yyyyyyyyyyyyyyyyy########yyyyyyyyyyyyyyyyyyyyyyy",
"yyyyyyyyyyyyyyy##%======%###yyyyyyyyyyyyyyyyyyyy",
"yyyyyyyyyyyyyy##%=========%%##yyyyyyyyyyyyyyyyyy",
"yyyyyyyyyyyyy##%============%#oooyyyyyyyyyyyyyyy",
"yyyyyyy::::::#%%=%%%====%%%%%%###ooo5yyyyyyyyyyy",
":::::::eeeee##%%%%%%%%===%########O8h555yyyyyyyy",
":eeeree%%%%%##%%%%%%%%%%%%%##OOOO#Ohhh885yyyyyyy",
":ee%===%%%%%###%%%%%%%%%%%%%##OOoOO8885  >yyyyyy",
":ea======%%####%%%%%%%%%%%#####OOoO55  >w>yyyyyy",
"y a=====##&###%%%%%%%%%%%%#####OOoO  .y>>yyyyyyy",
"y e====%%#&&###%%%%%%#######OOOOOO  +X..y>yyyyyy",
"yy a====%%&-&&##%%%%%%%######OOOO&&&&..y>w>yyyyy",
"yyy a====%%o,,&&&##%%%%%%###OO&&&,,-&ooooooooo y",
"yyyy a=====%oo,,,&&&&&&&&&&&&&,,,,,- OOOO###00 y",
"yyyyy aa=====%ooo,6666666,,,,,,,,,, OOO#####0 yy",
"yyyyyy eaa=====%#oooo,6666,,,,,,,  O#######00 yy",
"yyyyyyy  eaa%=====%%#ooo,,,,,,   OO##%#####0 yyy",
"yyyyyyyyy  aaaae%====%%#ooo   OOOO##%#####00 yyy",
"yyyyyy...++   eaaaeee%%%%%#OOOOOO#%%#####00 yyyy",
"yyyyyyy X9s+77   0eeeee%%%%%%%%%%%%###0000 yyyyy",
"yyyyyyyy 9z+<7<77   0eeee%%%%%%%%%000000  yyyyyy",
"yyyyyyyyy zs+<<7<<<;  0eeeeeeeeeee0000  .yyyyyyy",
"yyyyyyyyy ks+<<<<<<<7;   0eeeeeeeee0  yyyyyyyyyy",
"yyyyyyyyyy t <<<<<<<<7$$<            yyyyyyyyyyy",
"yyyyyyyyyyy  <<<<<<<<<7<$$<<<<<<<<  yyyyyyyyyyyy",
"yyyyyyyyyyy  +<<<<<<<<<<<<$$<<<<<+  yyyyyyyyyyyy",
"yyyyyyyyyyy  +<<<<<<<<<<<<<<@@@<<+  yyyyyyyyyyyy",
"yyyyyyyyyyy + <<+<<+<<<<<+<<<<+   + yyyyyyyyyyyy",
"yyyyyyyyyyy   +<+<<+<<<<<+<<+++<+   yyyyyyyyyyyy",
"yyyyyyyyyyyy + < <<++<<<++<<++ < + yyyyyyyyyyyyy",
"yyyyyyyyyyyy**   <+++<<<+++<  2  **yyyyyyyyyyyyy",
"yyyyyyyyyyy*42 22    +<+     222 21*yyyyyyyyyyyy",
"yyyyyyyyyyy*12ddd2222   222222ddd21*yyyyyyyyyyyy",
"yyyyyyyyyyy*p2dfdddddd222ddddddfd211*yyyyyyyyyyy",
"yyyyyyyyyyy*12dfdddddddddddddddfd21iu*yyyyyyyyyy",
"yyyyyyyyyy q*2ddfddfdddddffdddfdd2i41q*yyyyyyyyy",
"yyyyyyyyyy *2dfdffddffffffdddffdd24jj1*yyyyyyyyy",
"yyyyyyyyyyy 2dffdffddfffdddfffdfd2   p3yyyyyyyyy",
"yyyyyyyyyyyy2fgffgfffffffffgffgff29kk  yyyyyyyyy",
"yyyyyyyyyyyy2fgggfggffffgggfgggff29ss9yyyyyyyyyy",
"yyyyyyyyyyyy2ffgggggggggggggggffd2   yyyyyyyyyyy",
"yyyyyyyyyyy2ddffglggggggggglgffdd2yyyyyyyyyyyyyy",
"yyyyyyyyyyy2dffggglllllllllgggffdd2yyyyyyyyyyyyy",
"yyyyyyyyyy2ffggggggllllllgggggggff2yyyyyyyyyyyyy",
"yyyyyyyyy2ffggglllllllllllllllgggff2yyyyyyyyyyyy",
"yyyyyyyyyy22dfgglllllllllllllggfd22yyyyyyyyyyyyy",
"yyyyyyyyyyyy                     yyyyyyyyyyyyyyy"
};
