/* XPM */
static char *player_4[] = {
/* columns rows colors chars-per-pixel */
"48 48 48 1 ",
"  c black",
". c #010101",
"X c #040404",
"o c #070707",
"O c #0B0B0B",
"+ c gray5",
"@ c #0F0F10",
"# c #121313",
"$ c gray10",
"% c #1B1B1A",
"& c #1B1B1B",
"* c #261F1A",
"= c #09162B",
"- c #2B2C2B",
"; c #352D26",
": c #313030",
"> c #593D15",
", c #623C02",
"< c #493D34",
"1 c #3B403B",
"2 c #103660",
"3 c #0F4777",
"4 c #0F4C7C",
"5 c #0F4F7F",
"6 c #4C4C4C",
"7 c #705C4E",
"8 c #616760",
"9 c gray46",
"0 c #964B1F",
"q c #81571F",
"w c #BF6500",
"e c #AD7203",
"r c #AF7629",
"t c #B36739",
"y c green",
"u c #E08517",
"i c #FFBF17",
"p c #978F71",
"a c #D69C50",
"s c #EA9777",
"d c #0F6C9C",
"f c #3EBCD0",
"g c #66E0E5",
"h c gray66",
"j c #C4BFAC",
"k c #F9C19D",
"l c #97F1F1",
"z c #FBDCC8",
/* pixels */
"yyyyyyyyyyyyyyyyyyyyyyyyyyyyyyyyyyyyyyyyyyyyyyyy",
"yyyyyyyyyyyyyyyyy####ooooyyyyyyyyyyyyyyyyyyyyyyy",
"yyyyyyyyyyyyyyy##%------%oooyyyyyyyyyyyyyyyyyyyy",
"yyyyyyyyyyyyyy##%---------%%ooyyyyyyyyyyyyyyyyyy",
"yyyyyyyyyyyyy##%------------%#oooyyyyyyyyyyyyyyy",
"yyyyyyyyyyyyy#%%-%%%----%%%%%%###ooyyyyyyyyyyyyy",
"yyyyyyyyyyyy##%%%%%%%%---%&%%%%%###O6yyyyyyyyyyy",
"yyyyy>>>>>>>##%%%%%%%%%%%%%##OOOO##O966yyyyyyyyy",
">>>>>rrrrrr####%%%%%%%%%%%%%##OOoOOOhh9666yyyyyy",
">rrrr--%%%%####%%%%%%%%%%%#####OOoOO9hhh9 ,yyyyy",
">ra%---%%%*###%%%%%%%%%%%%#####OOoO69996 e,yyyyy",
">raa--%%%%**###%%%%%%#######OOOOOO      ,,yyyyyy",
"y ra---%#o*;**##%%%%%%%######OOOO****yyy,yyyyyyy",
"yy aa---%#oo<<***##%%%%%%###OO***<<; oooe,yyyyyy",
"yy raa---%%%oo<<<*************<<<<<; OOOoooo>>>y",
"yyy raaa-----%ooo<7777777<<<<<<<<<< OOOOOO##qq y",
"yyyy raaaa-----%#oooo<7777<<<<<<<  OOO######qq y",
"yyyyy  rraaaaa%----%#ooo<<<<<<   O#########qq yy",
"yyyyyyy   rraaaaar-----#ooo   OOO###%#####qqq yy",
"yyyyyyyyy+    raaaaar-%%%%#OOOOO###%#####qqq yyy",
"yyyyyyyy.0s+18    qrrrr%%%%%%%%%%%%####qqqq yyyy",
"yyyyyyy.X0z+111188  qrrrr%%%%%%%####qqqqqq yyyyy",
"yyyyyy    zs+111811:  qrrrrrrrrrrqqqqqq   yyyyyy",
"yyyyyyyyy ks+11111111:   qrrrrrrrrqq   yyyyyyyyy",
"yyyyyyyyyy t 111111111$$8            yyyyyyyyyyy",
"yyyyyyyyyyy  11111111118$$11111111  yyyyyyyyyyyy",
"yyyyyyyyyyy  +111111111111$$11111+  yyyyyyyyyyyy",
"yyyyyyyyyyy  +11111111111111@@@11+  yyyyyyyyyyyy",
"yyyyyyyyyyy + 111+111+11111+11+   + yyyyyyyyyyyy",
"yyyyyyyyyyy   +1+++11+11111+11+1+   yyyyyyyyyyyy",
"yyyyyyyyyyyy + 1  +11++111++11 1 + yyyyyyyyyyyyy",
"yyyyyyyyyyyy==  3  1+++111+ +1   ==yyyyyyyyyyyyy",
"yyyyyyyyyyy=53 3333    +1+    33 35=yyyyyyyyyyyy",
"yyyyyyyyyyy=p3ddd333333   3333ddd32=yyyyyyyyyyyy",
"yyyyyyyyyy=223dfdddddd333ddddddfd32=yyyyyyyyyyyy",
"yyyyyyyyy=ui23dfdddddddddddddddfd32=yyyyyyyyyyyy",
"yyyyyyyy=w25i3ddfdddffdddddfddfdd3=w yyyyyyyyyyy",
"yyyyyyyy=2jj53ddffdddffffffddffdfd3= yyyyyyyyyyy",
"yyyyyyyy4p   3dfdfffdddfffddffdffd3 yyyyyyyyyyyy",
"yyyyyyyy  kk03ffgffgfffffffffgffgf3yyyyyyyyyyyyy",
"yyyyyyyyy0ss03ffgggfgggffffggfgggf3yyyyyyyyyyyyy",
"yyyyyyyyyy   3dffgggggggggggggggff3yyyyyyyyyyyyy",
"yyyyyyyyyyyyy3ddffglggggggggglgffdd3yyyyyyyyyyyy",
"yyyyyyyyyyyy3ddffggglllllllllgggffd3yyyyyyyyyyyy",
"yyyyyyyyyyyy3ffgggggggllllllggggggff3yyyyyyyyyyy",
"yyyyyyyyyyy3ffggglllllllllllllllgggff3yyyyyyyyyy",
"yyyyyyyyyyyy33dfgglllllllllllllggfd33yyyyyyyyyyy",
"yyyyyyyyyyyyyy                     yyyyyyyyyyyyy"
};
