/* XPM */
static char *player_3[] = {
/* columns rows colors chars-per-pixel */
"48 48 48 1 ",
"  c black",
". c #010101",
"X c #040404",
"o c #070707",
"O c #0B0B0B",
"+ c gray5",
"@ c #0F0F10",
"# c #121313",
"$ c gray10",
"% c #1B1B1A",
"& c #261F1A",
"* c #09162B",
"= c #2B2C2B",
"- c #352D26",
"; c #362E26",
": c #313030",
"> c #593D15",
", c #623C02",
"< c #493D34",
"1 c #3B403B",
"2 c #103660",
"3 c #0F4777",
"4 c #0F4C7C",
"5 c #0F4F7F",
"6 c #4C4C4C",
"7 c #705C4E",
"8 c #616760",
"9 c gray46",
"0 c #882E00",
"q c #964B1F",
"w c #81571F",
"e c #AD7203",
"r c #AF7629",
"t c #B36739",
"y c green",
"u c #E08517",
"i c #FFBF17",
"p c #978F71",
"a c #D69C50",
"s c #EA9777",
"d c #0F6C9C",
"f c #3EBCD0",
"g c #66E0E5",
"h c gray66",
"j c #C4BFAC",
"k c #F9C19D",
"l c #97F1F1",
"z c #FBDCC8",
/* pixels */
"yyyyyyyyyyyyyyyyy####ooooyyyyyyyyyyyyyyyyyyyyyyy",
"yyyyyyyyyyyyyyy##%======%oooyyyyyyyyyyyyyyyyyyyy",
"yyyyyyyyyyyyyy##%========%%#ooyyyyyyyyyyyyyyyyyy",
"yyyyyyyyyyyyy##%===========%%#ooyyyyyyyyyyyyyyyy",
"yyyyyyyyyyyyy#%%=%%%====%%%%%%%#oooyyyyyyyyyyyyy",
"yyyyyyyyyyyy##%%%%%%%%===%%########o66yyyyyyyyyy",
"yyyyyy>>>>>>##%%%%%%%%%%%%%##OOOO##Ohh666yyyyyyy",
">>>>>>rrrrrr###%%%%%%%%%%%%%##OOoOOOhhh9 ,yyyyyy",
">rrrrr%%%%%####%%%%%%%%%%%#####OOoO6996 e,yyyyyy",
">rr%====%%&###%%%%%%%%%%%%#####OOoo66  ,,yyyyyyy",
">ra====%#%&&###%%%%%%#######OOOOOOo&&X.y,yyyyyyy",
"y a====%%#&-&&##%%%%%%%######OOOO&&-&.y,e,yyyyyy",
"y ra====%%#o<<&&&##%%%%%%###OO&&&<-- oooo,yyyyyy",
"yy ra====%%%oo<<<&&&&&&&&&&&&&<<<<;- OOOOooo>>>y",
"yyy raa======%ooo<7777777<<<<<<<<<- OOO#####ww y",
"yyyy raaa======%#oooo<7777<<<<<<<  O########ww y",
"yyyyy  raaaaa%=====%#ooo<<<<<<   OO########ww yy",
"yyyyyyy   raaaaar%====%#ooo   OOOO##%#####www yy",
"yyyyyyyyy+    raaaarr%%%%%#OOOOOO#%%#####www yyy",
"yyyyyyyy.qs+18    wrrrr%%%%%%%%%%%%####wwww yyyy",
"yyyyyy..Xqz+181188  wrrrr%%%%%%%%###wwwwww yyyyy",
"yyyyyyy   zs+111811:  wrrrrrrrrrrrwwwwww  yyyyyy",
"yyyyyyyyy ks+11111111:   wrrrrrrrrrww   yyyyyyyy",
"yyyyyyyyyy t 111111111$$1            yyyyyyyyyyy",
"yyyyyyyyyyy  11111111118$$11111111  yyyyyyyyyyyy",
"yyyyyyyyyyy  +111111111111$$11111+  yyyyyyyyyyyy",
"yyyyyyyyyyy  +11111111111111@@@11+  yyyyyyyyyyyy",
"yyyyyyyyyyy + 11+111+11111+111+   + yyyyyyyyyyyy",
"yyyyyyyyyyy   +1++11+11111+11++1+   yyyyyyyyyyyy",
"yyyyyyyyyyyy + 1 +11++111++11+ 1 + yyyyyyyyyyyyy",
"yyyyyyyyyyyy**  3 1+++111+++1 3  **yyyyyyyyyyyyy",
"yyyyyyyyyyy*53 333    +1+    333 35*yyyyyyyyyyyy",
"yyyyyyyyyyy*23ddd33333   33333ddd32*yyyyyyyyyyyy",
"yyyyyyyyyyy*p3dfdddddd333ddddddfd32*yyyyyyyyyyyy",
"yyyyyyyyyyy*23dfdddddddddddddddfd32*yyyyyyyyyyyy",
"yyyyyyyyyyy 23ddfddffdddddffddfdd32 yyyyyyyyyyyy",
"yyyyyyyyyy *3dfdffddfffffffddffdfd3* yyyyyyyyyyy",
"yyyyyyyyy0ui3dffdfffddfffddfffdffd3iu0yyyyyyyyyy",
"yyyyyyyyy*253fffffgfffffffffgfffff352*yyyyyyyyyy",
"yyyyyyyyy4pj3ffgffgggfffffgggffgff3jp4yyyyyyyyyy",
"yyyyyyyyy   3ffgggfgggggggggfgggff3   yyyyyyyyyy",
"yyyyyyyyyqss3dffgggggggggggggggffd3ssqyyyyyyyyyy",
"yyyyyyyyyy  3ddffglggggggggglgffdd3  yyyyyyyyyyy",
"yyyyyyyyyyy3ddffggglllllllllgggffdd3yyyyyyyyyyyy",
"yyyyyyyyyyy3ffggggggllllllgggggggff3yyyyyyyyyyyy",
"yyyyyyyyyy3ffggglllllllllllllllgggff3yyyyyyyyyyy",
"yyyyyyyyyyy33dfgglllllllllllllggfd33yyyyyyyyyyyy",
"yyyyyyyyyyyyy                     yyyyyyyyyyyyyy"
};
