/* XPM */
static char *player_9[] = {
/* columns rows colors chars-per-pixel */
"48 48 61 1 ",
"  c black",
". c #070707",
"X c #0B0B0B",
"o c gray5",
"O c #040B16",
"+ c #121313",
"@ c #1B1B1A",
"# c #261F1A",
"$ c #09162B",
"% c #0B1D39",
"& c #0F2631",
"* c #0C203E",
"= c #2B2C2B",
"- c #352D26",
"; c #593D15",
": c #623C02",
"> c #493D34",
", c #3B403B",
"< c #103660",
"1 c #103A65",
"2 c #0F4777",
"3 c #0F4C7C",
"4 c #0F4F7F",
"5 c #4C4C4C",
"6 c #705C4E",
"7 c #616760",
"8 c gray46",
"9 c #882E00",
"0 c #964B1F",
"q c #81571F",
"w c #BF6500",
"e c #AD7203",
"r c #815720",
"t c #AF7629",
"y c #B36739",
"u c green",
"i c #E08517",
"p c #FFBF17",
"a c #FFD017",
"s c #978F71",
"d c #D59B4F",
"f c #D69C50",
"g c #EA9777",
"h c #0F5889",
"j c #0F6C9C",
"k c #137CA9",
"l c #2669A6",
"z c #29A1C1",
"x c #3EBCD0",
"c c #68B8FF",
"v c #66E0E5",
"b c #80929D",
"n c #AFA992",
"m c gray66",
"M c #C4BFAC",
"N c #F9C19D",
"B c #FFEC9D",
"V c #BEC8D0",
"C c #FBDCC8",
"Z c #E6E6E6",
"A c white",
/* pixels */
"uuuuuuuuuuuuuuuuuuuuuu++++.....uuuuuuuuuuuuuuuuu",
"uuuuuuuuuuuuuuuuuuu+++@====@@++..uuuuuuuuuuuuuuu",
"uuuuuuuuuuuuuuuuu++======@@@@@@++.uuuuuuuuuuuuuu",
"uuuuuuuuuuuuuuu++@=====@@@@@@@@@++.uuuuuuuuuuuuu",
"uuuuuuuuuu888++@====@@@@@@@@@@@@++.uuuuuuuuuuuuu",
"uuuuuu8888ZZ+@========@@@@@@@@+++++.uuuuuuuuuuuu",
"uuuuue mZZZZ+========@@@@++@@@@++++.uuuuuuuuuuuu",
"uuuuuea 8mmm+@=====@@@@@++++@@@@+++.;;;;;uuuuuuu",
"uuuuuu:: 888+@@@@@@@@+...+@@@@@@@++.qqqqq;;;;;;u",
"uuuuuueuu   8+@@@@@+  .+++++@@@@@++.#XXXqqqqqq;u",
"uuuuuea:u,##        XX++++@@@@@@@++##XXXXX++qq;u",
"uuuuuea:u##55XXXXX###++++@@@@@@@+##-#XX+++++qq;u",
"uuuuueB:+#5Z  #####6####++++++###>--..+++++qq uu",
"qq+++   @5Z  6666>#6#>>>######>>>...++++++qqq uu",
" tt@@==== Z #6#>#>#>#>>..........++++++++qqq uuu",
" tf=====@ 85#666>......+@@@@@@@@+++++++qqqq uuuu",
" tf====@@+ 85# ..+@====@@@tttttqqqqqqqqqqq uuuuu",
"u ff==@@+++   +@===@tttttttttrqqqqqqqqqq  uuuuuu",
"u tff==========ftttttttttq              uuuuuuuu",
"uu tff======ffftt         o000,,,77,o, uuuuuuuuu",
"uuu tfffdffffft  0o,,o ,,,,ooy0,,77,oo uuuuuuuuu",
"uuuu  ttttttt  0  0o,oN     CN0,,7,,o uuuuuuuuuu",
"uuuuuu       ,ogl nn   NooogCN ,,7,,o uuuuuuuuuu",
"uuuuuuuuuu  yoog &AnyNNNooooNy ,,,,,o uuuuuuuuuu",
"uuuuuuuuuu  yCCg lAnyNNNNo,oy o,,,o, uuuuuuuuuuu",
"uuuuuuuuuu yNCCNccANNNNNNo,, oo,,,o, uuuuuuuuuuu",
"uuuuuuuuuuuyNCCCCCNNNNNNNo,, o,,,,oo uuuuuuuuuuu",
"uuuuuuuuuuu,77,CCNNNNNNNo,7, o,,,,o uuuuuuuuuuuu",
"uuuuuuuuuuuo,77,,oNNNooo,77, o,,o,o uuuuuuuuuuuu",
"uuuuuuuuuuuo,,,oooooo,7777, Oyo,o, uuuuuuuuuuuuu",
"uuuuuuuuuuuuooo,777777777,, O  o o uuuuuuuuuuuuu",
"uuuuuuuuuuuuu ,777777777,, i92u u  uuuuuuuuuuuuu",
"uuuuuuuuuuuuuu ,77777,,,  M4<$2uu uuuuuuuuuuuuuu",
"uuuuuuuuuuuuuuu         *4M4<$22uuuuuuuuuuuuuuuu",
"uuuuuuuuuuuuuuuuMO**pp< $*4s3$22uuuuuuuuuuuuuuuu",
"uuuuuuuuuuuuuuuu9ippk*$$ $<<$$2j2uuuuuuuuuuuuuuu",
"uuuuuuuuuuuuuuuu9<<4k4*$ $<< 22j2uuuuuuuuuuuuuuu",
"uuuuuuuuuuuuuuuubV3sMMM9i$pi922x2uuuuuuuuuuuuuuu",
"uuuuuuuuuuuuuuuu3VssAAA <p4<$22xj2uuuuuuuuuuuuuu",
"uuuuuuuuuuuuuuuubb sAAA s4Ms32jxj2uuuuuuuuuuuuuu",
"uuuuuuuuuuuuuuuu  4 pAp      2xxjj2uuuuuuuuuuuuu",
"uuuuuuuuuuuuuuuuu k4 p   gg $2xxjx2uuuuuuuuuuuuu",
"uuuuuuuuuuuuuuuuu k44 kkk   4$xvxvj2uuuuuuuuuuuu",
"uuuuuuuuuuuuuuuuu k44k444<<<<$jvvvxj22uuuuuuuuuu",
"uuuuuuuuuuuuuuuuu pppppppiiiw92xvvvvxj22uuuuuuuu",
"uuuuuuuuuuuuuuuuu              2xxvvvvxj222uuuuu",
"uuuuuuuuuuuuuuuuuu %% %111%uuuu jxxxxxxx  uuuuuu",
"uuuuuuuuuuuuuuuuuu 1% zzh1%uuuuu        uuuuuuuu"
};
