/* XPM */
static char *player_2[] = {
/* columns rows colors chars-per-pixel */
"48 48 64 1 ",
"  c black",
". c #070707",
"X c #0B0B0B",
"o c gray5",
"O c #040B16",
"+ c #0F0F10",
"@ c #121313",
"# c gray10",
"$ c #1B1B1A",
"% c #261F1A",
"& c #26201A",
"* c #09162B",
"= c #0B1D39",
"- c #0F2631",
"; c #0C203E",
": c #2B2C2B",
"> c #352D26",
", c #593D15",
"< c #613B02",
"1 c #623C02",
"2 c #493D34",
"3 c #3B403B",
"4 c #103660",
"5 c #103A65",
"6 c #0F4777",
"7 c #0F4C7C",
"8 c #0F4F7F",
"9 c #4C4C4C",
"0 c gray37",
"q c #705C4E",
"w c #616760",
"e c gray46",
"r c #882E00",
"t c #964B1F",
"y c #81571F",
"u c #BF6500",
"i c #AD7203",
"p c #AF7629",
"a c #B36739",
"s c #07EB0F",
"d c green",
"f c #E08517",
"g c #FFBF17",
"h c #FFD017",
"j c #978F71",
"k c #D69C50",
"l c #EA9777",
"z c #0F5889",
"x c #0F6C9C",
"c c #137CA9",
"v c #2669A6",
"b c #3EBCD0",
"n c #68B8FF",
"m c #66E0E5",
"M c #80929D",
"N c #AFA992",
"B c gray66",
"V c #C4BFAC",
"C c #F9C19D",
"Z c #FFEC9D",
"A c #BEC8D0",
"S c #FBDCC8",
"D c #E6E6E6",
"F c white",
/* pixels */
"dddddddddddddddddddddddddddddddddddddddddddddddd",
"dddddddddddddddddddddd@@@@....dddddddddddddddddd",
"ddddddddddddddddddd@@@$:::$$@@..dddddddddddddddd",
"ddddddddddddddddd@@$:::::::$$$$@.ddddddddddddddd",
"dddddddddddddd@@@$::::::::$$$$$@@.dddddddddddddd",
"dddddddddde@@@$:::::::::$$$$$$@@@.dddddddddddddd",
"ddddddeeeeBB@$:::::$$$$$$$$$$$@@@@,,,,,,dddddddd",
"dddddi BDDDD@::::::::$$$$@@$$$$@@@.,yyyy,,,,,,,d",
"dddddih eBDB@$$:::::$$$$@@@@$$$$@@.yyyyyyyyyyy,d",
"ddddd1<  eee@$$$$$$$$$$@..@$$$$$$@@.XXXXXX@@yy,d",
"ddddiddds   X@$$$$$$$@@ .@@@@@$$$@@.%XXXX@@yy dd",
"dddih1d33ww   @@@@@    X@@@@$$$$$@@%%XXX@@@yy dd",
"dddih1ddoo%%%      XXXX@@@@$$$$$@%%>%.@@@@yy ddd",
" yyiZ1@@@@%>22222999XX@@%%%%%%%%%2>..@@@@yyy ddd",
" pp   $$$@ >2qq29D  %%&%%q%2222%2..@@@@@yyy dddd",
"d pk::::::$ 2qq9D  qqqq2%q%222...$$@@@yyy  ddddd",
"d pk:::::$@@  2 D %q%2%2%2....@$$$@@yyyy ddddddd",
"dd pk:::::$@@@  e9%qqq2...@$$$$$yyyyyy  dddddddd",
"ddd pk:::::$$$$@ e9% ..@$$$$ppyyyyyy  dddddddddd",
"dddd pkk::::$$@@@   @$$$$$pppyyyy   33oooddddddd",
"ddddd pkkk::::::$$$$$$$$ppppy    o33333 dddddddd",
"dddddd pkkkk::::::::$$ppppy  too3o     ddddddddd",
"ddddddo  pkkkkkkkkkkkkppy  t   t ooCS dddddddddd",
"ddddddddd  ppppppppppy   oa v  NNooCl dddddddddd",
"dddddddddd            CCCClN- -FNooa ddddddddddd",
"ddddddddddd o ++###+ SCCCSlFv vFNao dddddddddddd",
"ddddddddddd  +0++++ CSSSSSCFnnnFloo dddddddddddd",
"ddddddddddd  ++    SSSSSSSSSSCClloo dddddddddddd",
"ddddddddddd o  lCCC3wwwlwww3CCClo3o dddddddddddd",
"ddddddddddd  333o33www3o3www33oo33  dddddddddddd",
"dddddddddddd o3w3o333ooCoo333o3w3o ddddddddddddd",
"dddddddddddd* o3w3ooo3www3ooo3w3o *ddddddddddddd",
"ddddddddddd*48  wwwwwwwwwwwwwww  88*dddddddddddd",
"ddddddddddd*4888   wwwwwwwww   44jj*dddddddddddd",
"dddddddddd*448;;**;         ;rfggg4*dddddddddddd",
"ddddddddd*444;;*O48c4fuggg4c8*488gf*dddddddddddd",
"dddddddd*u44;**O *;c88gc888c*jjVV84frddddddddddd",
"dddddddd*4ffu    *4c8g44488c      j4rddddddddddd",
"dddddddd  4* xxx 77777FFA7jVtltCSS j ddddddddddd",
"dddddddd a   xxx jVVjAFjAjjFF tlCSl dddddddddddd",
"ddddddddd   6xx       MMM jFFF lll ddddddddddddd",
"dddddddddddd6bb O*844g   4 gFgO   dddddddddddddd",
"ddddddddddd6bb 4*4c88fg8c88 g * x6dddddddddddddd",
"ddddddddd66mmbr*88c88fg8c88c 84 bb666ddddddddddd",
"dddddddddd66xx u44ggg  gc88c44* xxx6dddddddddddd",
"dddddddddddd    fg   ** fffffuur  6ddddddddddddd",
"dddddddddddddddd   =55=         dddddddddddddddd",
"dddddddddddddddddd =zz= dddddddddddddddddddddddd"
};
