/* XPM */
static char *player_6[] = {
/* columns rows colors chars-per-pixel */
"48 48 57 1 ",
"  c black",
". c #070707",
"X c #0B0B0B",
"o c gray5",
"O c #040B16",
"+ c #0F0F10",
"@ c #121313",
"# c gray10",
"$ c #1B1B1A",
"% c #261F1A",
"& c #09162B",
"* c #0B1D39",
"= c #0C203E",
"- c #2B2C2B",
"; c #352D26",
": c #593D15",
"> c #5A3E16",
", c #623C02",
"< c #493D34",
"1 c #3B403B",
"2 c #103660",
"3 c #103A65",
"4 c #0F4777",
"5 c #0F4C7C",
"6 c #0F4F7F",
"7 c #4C4C4C",
"8 c gray37",
"9 c #705C4E",
"0 c #616760",
"q c gray46",
"w c #882E00",
"e c #81571F",
"r c #BF6500",
"t c #AD7203",
"y c #AF7629",
"u c #B36739",
"i c green",
"p c #E08517",
"a c #FFBF17",
"s c #FFD017",
"d c #978F71",
"f c #D69C50",
"g c #EA9777",
"h c #0F5889",
"j c #0F6C9C",
"k c #137CA9",
"l c #29A1C1",
"z c #3EBCD0",
"x c #66E0E5",
"c c #80929D",
"v c gray66",
"b c #C4BFAC",
"n c #F9C19D",
"m c #FFEC9D",
"M c #BEC8D0",
"N c #FBDCC8",
"B c #E6E6E6",
/* pixels */
"iiiiiiiiiiiiiiii.....@@@@iiiiiiiiiiiiiiiiiiiiiii",
"iiiiiiiiiiiiii..@@$$----$@@@iiiiiiiiiiiiiiiiiiii",
"iiiiiiiiiiiii.@@$$$$$$------@@iiiiiiiiiiiiiiiiii",
"iiiiiiiiiiii.@@$$$$$$$$$-----$@@iiiiiiiiiiiiiiii",
"iiiiiiiiiiii.@@$$$$$$$$$$$$----$@@qqqiiiiiiiiiii",
"iiiiiiiiiii.@@@@@$$$$$$$$-------$$@BBqqqqiiiiiii",
"iiiiiiiiiii.@@@@$$$$@@$$$$-------$@BBBBv tiiiiii",
"iiiiiiiiiii.@@@$$$$@@@@$$$$$----$$@vvvq stiiiiii",
"iiiiiii::::.@@$$$$$$$@@..@$$$$$$$$@qqq ,,,iiiiii",
"::::::>eee%.@@$$$$$@@@@@. @$$$$$$@q   iitiiiiiii",
":eeeeeeXXX%%@@$$$$$$@@@@@X         ;%1its,iiiiii",
" ee@@XXXXX%;%%@$$$$$$@@@@@XXXXX   <%%1its,iiiiii",
" ee@@@@@XX%;;<%%%@$$$$$@@@@XXX%7q <; @@tm,iiiiii",
" :e@@@@@@. ;;<<99%%%%%%%%%%%%%<7B ; @$$   @@@eei",
"i ee@@@@@@@ ;<<<999999999<<<<<<7B7  $$$$$$$$yy i",
"i :ee@@@@@@@  <<<<999999999<<<< qq @@@$-----fy i",
"ii eee@@@@@@@@   <<<<<<<<<<<<<    @@@$-----ff ii",
"iii eeee@@@@@$$$@             @@@@@@$-----fff ii",
"iiii  eeee@@@@@$$$$$$$$$$$$$$$$----------ffy iii",
"iiiiii  eeeee@@@@@$$$$$$$$-------------fffy iiii",
"iiiiiiii   eeeee@@@$$$$$$$$$$$------ffffy  iiiii",
"iiiiiiiii o   eeeeeeeyyyyyyyyffffffffy   iiiiiii",
"iiiiiiiii o110   eeeeeyyyyyyyyyyyyy   iiiiiiiiii",
"iiiiiiiii o11111                   iiiiiiiiiiiii",
"iiiiiiiiii 1o111o uo1onnn +#####+ uiiiiiiiiiiiii",
"iiiiiiiiii 1+111oo 11onnn ++###+ Nnuiiiiiiiiiiii",
"iiiiiiiiii oo+111o 11onn +8++++ NNnuiiiiiiiiiiii",
"iiiiiiiiiii o1++1o 101o+ ++    N1001iiiiiiiiiiii",
"iiiiiiiiiii o1o1++####+++  nno11001oiiiiiiiiiiii",
"iiiiiiiiiiii 1o1ouO 100001oooooo111oiiiiiiiiiiii",
"iiiiiiiiiiii o o  O 110000000001oooiiiiiiiiiiiii",
"iiiiiiiiiiii  i i4wp 110000000001 iiiiiiiiiiiiii",
"iiiiiiiiiiiii ii4&266  111000001 iiiiiiiiiiiiiii",
"iiiiiiiiiiiiiii44&2666=         iiiiiiiiiiiiiiii",
"iiiiiiiiiiiiiii44&266=& 2aa==Obiiiiiiiiiiiiiiiii",
"iiiiiiiiiiiiii4j4&&22& &&=kaapwiiiiiiiiiiiiiiiii",
"iiiiiiiiiiiiii4j44 22& &=6k62pwiiiiiiiiiiiiiiiii",
"iiiiiiiiiiiiii4z44wpa&pw55555Mciiiiiiiiiiiiiiiii",
"iiiiiiiiiiiii4jz44&26a2 bbbdMM5iiiiiiiiiiiiiiiii",
"iiiiiiiiiiiii4jzj45db6d      cciiiiiiiiiiiiiiiii",
"iiiiiiiiiiii4jjzz4      6k66a  iiiiiiiiiiiiiiiii",
"iiiiiiiiiiii4zjzz4& gg  6k66a iiiiiiiiiiiiiiiiii",
"iiiiiiiiiii4jxzxz&6   kkkk66a iiiiiiiiiiiiiiiiii",
"iiiiiiiii44jzxxxj&2222666k66a iiiiiiiiiiiiiiiiii",
"iiiiiii44jzxxxxz4wrpppaaaaaaa iiiiiiiiiiiiiiiiii",
"iiii444jzxxxxzz4              iiiiiiiiiiiiiiiiii",
"iiiii  zzzzzzzj iiii*333* ** iiiiiiiiiiiiiiiiiii",
"iiiiiii        iiiii*3hll *3 iiiiiiiiiiiiiiiiiii"
};
