/* XPM */
static char *player_10[] = {
/* columns rows colors chars-per-pixel */
"48 48 59 1 ",
"  c black",
". c #070707",
"X c #0B0B0B",
"o c gray5",
"O c #040B16",
"+ c #121313",
"@ c #1B1B1A",
"# c #261F1A",
"$ c #09162B",
"% c #0B1D39",
"& c #0F2631",
"* c #0C203E",
"= c #2B2C2B",
"- c #352D26",
"; c #593D15",
": c #613B02",
"> c #623C02",
", c #493D34",
"< c #3B403B",
"1 c #103660",
"2 c #103A65",
"3 c #0F4777",
"4 c #0F4C7C",
"5 c #0F4F7F",
"6 c #4C4C4C",
"7 c #705C4E",
"8 c #616760",
"9 c gray46",
"0 c #882E00",
"q c #964B1F",
"w c #81571F",
"e c #BF6500",
"r c #AD7203",
"t c #AF7629",
"y c #B36739",
"u c green",
"i c #E08517",
"p c #FFBF17",
"a c #FFD017",
"s c #978F71",
"d c #D69C50",
"f c #EA9777",
"g c #0F5889",
"h c #0F6C9C",
"j c #137CA9",
"k c #2669A6",
"l c #3EBCD0",
"z c #68B8FF",
"x c #66E0E5",
"c c #80929D",
"v c #AFA992",
"b c gray66",
"n c #C4BFAC",
"m c #F9C19D",
"M c #FFEC9D",
"N c #BEC8D0",
"B c #FBDCC8",
"V c #E6E6E6",
"C c white",
/* pixels */
"uuuuuuuuuuuuuuuuuuuuuuuuuuuuuuuuuuuuuuuuuuuuuuuu",
"uuuuuuuuuuuuuuuuuuuuuu++++.....uuuuuuuuuuuuuuuuu",
"uuuuuuuuuuuuuuuuuuu+++@====@@++..uuuuuuuuuuuuuuu",
"uuuuuuuuuuuuuuuuu++======@@@@@@++.uuuuuuuuuuuuuu",
"uuuuuuuuuuuuuuu++@=====@@@@@@@@@++.uuuuuuuuuuuuu",
"uuuuuuuuuuuuuu+@===@@@@@@@@@@@@@++.uuuuuuuuuuuuu",
"uuuuuuuuuu999+@======@@@@@@@@@+++++.uuuuuuuuuuuu",
"uuuuuu9999bV+@======@@@@@++@@@@++++.uuuuuuuuuuuu",
"uuuuur bVVVV+======@@@@@++++@@@@+++.;;;;;uuuuuuu",
"uuuuura 9bbb+@@@@@@@@+...+@@@@@@@++.wwwww;;;;;;u",
"uuuuuu>>   99+@@@@++  .+++++@@@@@++.#XXXwwwwww;u",
"uuuuuuuru<          XX++++@@@@@@@++##XXXXX++ww;u",
"uuuuuura:##66XXXXX###++++@@@@@@@+##-#XXXX+++ww;u",
"uuuuuura>#6V  #####7####++++++###,--..X++++ww uu",
"ww++++rM>6V  7777,#7#,,,######,,,...++++++www uu",
" tt@@@    V #7#,#,#,#,,..........++++++++www uuu",
" td====== 96#777,......+@@@@@@@@@++++++wwww uuuu",
" td=====@+ 96# ..+@====@@tttttttwwwwwwwww  uuuuu",
"u dd==@@+++   +@===@ttttttttttwwwwwwwww  uuuuuuu",
"u tdd====@@@=====ttttttww              uuuuuuuuu",
"uu tddd======dddt        ooqqq<<<88<o< uuuuuuuuu",
"uuu tdddddddddtt o<<oo <<<oyfyq<<88<oo uuuuuuuuu",
"uuuu  ttttttt     o<omm <<<oBmq<<8<<o uuuuuuuuuu",
"uuuuuu       omfk v   mm   fBm <<8<<o uuuuuuuuuu",
"uuuuuuuuuu  oomf &Cvymmmoooomy <<<<<o uuuuuuuuuu",
"uuuuuuuuuu  yBBf kCvymmmmo<oy o<<<o< uuuuuuuuuuu",
"uuuuuuuuuu ymBBmzzCmmmmmmo<< oo<<<o< uuuuuuuuuuu",
"uuuuuuuuuuuymBBBBBmmmmmmmo<< o<<<<oo uuuuuuuuuuu",
"uuuuuuuuuuu<88<BBmmmmmmmo<8< o<<<<o uuuuuuuuuuuu",
"uuuuuuuuuuuo<88<<ommmooo<88< o<o<oo uuuuuuuuuuuu",
"uuuuuuuuuuuo<<<oooooo<8888< Oy<o<o uuuuuuuuuuuuu",
"uuuuuuuuuuuuooo<888888888<< O o o uuuuuuuuuuuuuu",
"uuuuuuuuuuuuu <888888888<< i00 u  uuuuuuuuuuuuuu",
"uuuuuuuuuuuuuu <88888<<<  5n51qu uuuuuuuuuuuuuuu",
"uuuuuuuuuuuuuuu         **5n55s$uuuuuuuuuuuuuuuu",
"uuuuuuuuuuuuuuuunO**pp1  $15ss1$uuuuuuuuuuuuuuuu",
"uuuuuuuuuuuuuuuq0ippj*$$$ $1111$uuuuuuuuuuuuuuuu",
"uuuuuuuuuuuuuuqy0115j5*$$$ $151i0uuuuuuuuuuuuuuu",
"uuuuuuuuuuuuuqyfcN4snnn 4440i1p1$uuuuuuuuuuuuuuu",
"uuuuuuuuuuuuuqqf4NssCCC sss$1p5s4uuuuuuuuuuuuuuu",
"uuuuuuuuuuuuuu ycc sCCC    4s5n  3uuuuuuuuuuuuuu",
"uuuuuuuuuuuuuuu   5 pCp *$$    f 3uuuuuuuuuuuuuu",
"uuuuuuuuuuuuuuuuu 55 p 55111 yf xh3uuuuuuuuuuuuu",
"uuuuuuuuuuuuuuuu j55j jjj5555  xxlh33uuuuuuuuuuu",
"uuuuuuuuuuuuuuuu pppj5551111e0lxxxxlh33uuuuuuuuu",
"uuuuuuuuuuuuuuuu%   ppppiiii  3llxxxxlh333uuuuuu",
"uuuuuuuuuuuuuuuu%2gg        uu hlllllll  uuuuuuu",
"uuuuuuuuuuuuuuuuu%%22 %222%uuuu        uuuuuuuuu"
};
