/* XPM */
static char *player_11[] = {
/* columns rows colors chars-per-pixel */
"48 48 61 1 ",
"  c black",
". c #070707",
"X c #0B0B0B",
"o c gray5",
"O c #040B16",
"+ c #0F0F10",
"@ c #121313",
"# c #1B1B1A",
"$ c #1B1B1B",
"% c #201D1A",
"& c #261F1A",
"* c #09162B",
"= c #0B1D39",
"- c #0F2631",
"; c #0C203E",
": c #2B2C2B",
"> c #352D26",
", c #593D15",
"< c #623C02",
"1 c #493D34",
"2 c #3B403B",
"3 c #103660",
"4 c #103A65",
"5 c #0F4777",
"6 c #0F4C7C",
"7 c #0F4F7F",
"8 c #4C4C4C",
"9 c #705C4E",
"0 c #616760",
"q c gray46",
"w c #882E00",
"e c #964B1F",
"r c #81571F",
"t c #BF6500",
"y c #AD7203",
"u c #AF7629",
"i c #B36739",
"p c green",
"a c #E08517",
"s c #FFBF17",
"d c #FFD017",
"f c #978F71",
"g c #D69C50",
"h c #EA9777",
"j c #0F5889",
"k c #0F6C9C",
"l c #137CA9",
"z c #2669A6",
"x c #3EBCD0",
"c c #68B8FF",
"v c #66E0E5",
"b c #80929D",
"n c #AFA992",
"m c gray66",
"M c #C4BFAC",
"N c #F9C19D",
"B c #FFEC9D",
"V c #BEC8D0",
"C c #FBDCC8",
"Z c #E6E6E6",
"A c white",
/* pixels */
"pppppppppppppppppppppppppppppppppppppppppppppppp",
"pppppppppppppppppppppp@@@@.....ppppppppppppppppp",
"ppppppppppppppppppp@@@#::::##@@..ppppppppppppppp",
"ppppppppppppppppp@@::::::######@@.pppppppppppppp",
"pppppppqqqqqqq@@@#:::::#########@@.ppppppppppppp",
"ppppppy mZZZm@##:::::###########@@.ppppppppppppp",
"ppppppyd qmZZ@::::::::####$###@@@@@.pppppppppppp",
"ppppppp<< qmm@#::::::####@@####@@@@.,,,,,ppppppp",
"ppppppyppp qq@#::::#####@@@@####@@@.rrrrr,,,,,,p",
"pppppyd<ppp qq@#######@..@#######@@.XXXXXrrrrr,p",
"pppppyd<pp20   @@@@@  .@@@@@#####@@.&XXX@@@@rr,p",
"pppppyB<p2&&&       XX@@@@#######@@&&XXX@@@@r pp",
"ppppp   p&&88XXXXX&&&@@@@#######@&&>&XX@@@@rr pp",
"r@@@@@@@@&8Z  &&&&&9&&&&@@@@@@&&&1>>..@@@@rr ppp",
" uu#:::##8Z  99991&9&111&&&&&&111...@@@@@rr pppp",
" ug:::::# Z &9&1&1&1&11..........@@@@@@rrr ppppp",
"p g:::##@ q8&9991......@#######@@@@@@rrr  pppppp",
"p ug:::##@ q8& ..@#::::####uuurrrrrrrr  pppppppp",
"pp ug:::::#   @#:::#uuuuuuuurrrrrrr    ppppppppp",
"ppp ugg::::::::gguuuuuuuurr        2o2 ppppppppp",
"pppp  ugggggggguur         ooe222002oo ppppppppp",
"pppppp  uuuuuu    oo2oN 22  hie22022o pppppppppp",
"pppppppp      2o  ee   N  ohCNe22022o pppppppppp",
"pppppppppp  +oooz nniNNNooohCN 22222o pppppppppp",
"pppppppppp  iNNh -AniNNNooooNi 222o2o pppppppppp",
"pppppppppp  iCCh zAniNNNNo2oi o222ooo pppppppppp",
"pppppppppp iNCCNccANNNNNNo22 oo222oo ppppppppppp",
"pppppppppppiNCCCCCNNNNNNNo22 o2222oo ppppppppppp",
"ppppppppppp2002CCNNNNNNNo202 o22o22 pppppppppppp",
"pppppppppppo20022oNNNooo2002 oo2oo2 pppppppppppp",
"pppppppppppo222oooooo200002 Oioo2 o pppppppppppp",
"ppppppppppppooo200000000022 O p  p  pppppppppppp",
"ppppppppppppp 200000000022 awppp p ppppppppppppp",
"pppppppppppppp 200000222  73*5pppppppppppppppppp",
"ppppppppppppppp         7M73*55ppppppppppppppppp",
"ppppppppppppppppMO;;ss**37Mf*55ppppppppppppppppp",
"ppppppppppppppppwassl;*33373*5k5pppppppppppppppp",
"ppppppppppppppppw337**w*333 55k5pppppppppppppppp",
"ppppppppppppppppbV6eM7s333* 55x5pppppppppppppppp",
"pppppppppppppppp6Veh 7sa3* 6%5xk5ppppppppppppppp",
"ppppppppppppppppbbeiN f3w   *5xxk5pppppppppppppp",
"pppppppppppppppp  7 hh   ****5xxkk5ppppppppppppp",
"pppppppppppppppp a7l   773337*xvxkx55ppppppppppp",
"ppppppppppppppp* s7l7 llll7733*xvxvxk55ppppppppp",
"pppppppppppppp=* s7l77l777333twxxvvvvxk55ppppppp",
"ppppppppppppp=jj  ssssssssaaa  5xxxvvvvxk555pppp",
"ppppppppppppp=4jj4            p  kxxxxxxx  ppppp",
"pppppppppppppp==44 pppp=jjj4 pppp        ppppppp"
};
