/* XPM */
static char *player_1[] = {
/* columns rows colors chars-per-pixel */
"48 48 64 1 ",
"  c black",
". c #070707",
"X c #0B0B0B",
"o c gray5",
"O c #040B16",
"+ c #0F0F10",
"@ c #121313",
"# c gray10",
"$ c #1B1B1A",
"% c #261F1A",
"& c #09162B",
"* c #0B1D39",
"= c #0F2631",
"- c #0C203E",
"; c gray17",
": c #2B2C2B",
"> c #352D26",
", c #593D15",
"< c #5A3E16",
"1 c #623C02",
"2 c #493D34",
"3 c #3B403B",
"4 c #103660",
"5 c #103A65",
"6 c #0F4777",
"7 c #0F4C7C",
"8 c #0F4F7F",
"9 c #4C4C4C",
"0 c gray37",
"q c #705C4E",
"w c #616760",
"e c gray46",
"r c #882E00",
"t c #964B1F",
"y c #81571F",
"u c #BF6500",
"i c #AD7203",
"p c #AF7629",
"a c #B0762A",
"s c #B36739",
"d c green",
"f c #E08517",
"g c #FFBF17",
"h c #FFD017",
"j c #978F71",
"k c #D69C50",
"l c #EA9777",
"z c #0F5889",
"x c #0F6C9C",
"c c #137CA9",
"v c #2669A6",
"b c #3EBCD0",
"n c #68B8FF",
"m c #66E0E5",
"M c #80929D",
"N c #AFA992",
"B c gray66",
"V c #C4BFAC",
"C c #F9C19D",
"Z c #FFEC9D",
"A c #BEC8D0",
"S c #FBDCC8",
"D c #E6E6E6",
"F c white",
/* pixels */
"dddddddddddddddddddddddddddddddddddddddddddddddd",
"dddddddddddddddddddddd@@@@....dddddddddddddddddd",
"ddddddddddddddddddd@@@$:::$$@@..dddddddddddddddd",
"ddddddddddddddddd@@$:::::::$$$$@.ddddddddddddddd",
"dddddddddddddd@@@$:::::;::$$$$$@@.dddddddddddddd",
"dddddddddddd@@$:::::::::$$$$$$@@@.dddddddddddddd",
"dddddddddde@$::::::$$$$$$$$$$$@@@@.ddddddddddddd",
"dddddddddeB@::::::::$$$$$@@$$$$@@@.,,,<,,,dddddd",
"dddddeeeeDD@$:::::$$$$$$@@@@$$$$@@.yyyyyyy,,,,,d",
"ddddi BDDDDB@$$$$$$$$$$@..@$$$$$$@@.XXXXXyyyyy,d",
"ddddih eBBBe@$$$$$$$@@  .@@@@@$$$@@.%XXXXX@@yy,d",
"ddddd11  ee  @@@@@@   XX@@@@$$$$$@@%%XXX@@@@yy,d",
"ddddddidd %%%      XXXX@@@@$$$$$@%%>%.@@@@@@y dd",
"dddddih1@@%>22222999XX@@%%%%%%%%%2>..@@@@@@yy dd",
"yyy@@ih1$@ >2qq29D  %%%%%q%2222%2..$$@@@@yyy ddd",
" pp$@iZ1$:$ 2qq9D  qqqq2%q%222...$$$@@@yyyy dddd",
" pk:$   :$@@  2 D %q%2%2%2....@$$$$@@yyyy  ddddd",
"d kk:::::$@@@@  e9%qqq2...@$$$$$$yyyyyyy ddddddd",
"d pkk:::::$@@$$@ e9% ..@$$$$ppppyyyyy   dddddddd",
"dd pkk:::::$$$@@@   @$$$$$pppppyy    odddddddddd",
"ddd kkk:::::::$$$$$$$$$$ppppy    o3333oddddddddd",
"dddd akkkk::::::::$$$$ppppy  o33o  3333odddddddd",
"ddddd  pkkkkkkkkkkkkppppy  t  o3ooo      ddddddd",
"ddddddd  ppppppppppppy   Cs v    ooCl dddddddddd",
"ddddddddd             CooClN= =FNoos ddddddddddd",
"ddddddddddd o ++###+ SCCCSlFv vFNso dddddddddddd",
"ddddddddddd  +0++++ CSSSSSCFnnnFloo dddddddddddd",
"ddddddddddd  ++    SSSSSSSSSSCClloo dddddddddddd",
"ddddddddddd o  lCCC3wwwlwww3CCClo3o dddddddddddd",
"ddddddddddd  333o33www3o3www33oo33  dddddddddddd",
"dddddddddddd o3w3o333ooCoo333o3w3o ddddddddddddd",
"dddddddddddd& o3w3ooo3www3ooo3w3o &ddddddddddddd",
"ddddddddddd&88  wwwwwwwwwwwwwww  8j&dddddddddddd",
"ddddddddddd&8844   wwwwwwwww   888j&dddddddddddd",
"ddddddddddd&4gggfr-         -&&--84j&ddddddddddd",
"ddddddddddd&fg884&8c4fuggg4c84O&--444&dddddddddd",
"ddddddddddrf48VVjj&c88gc888c-& O&&-44u&ddddddddd",
"ddddddddddr4j      c8g44488c4&    uff4&ddddddddd",
"dddddddddd j SSCtlt777FFA7jVVV xxx &4  ddddddddd",
"ddddddddddd lSClt VVjAFjAjjFFF xxx   s ddddddddd",
"dddddddddddd lll      MMM jFFF  xx6   dddddddddd",
"ddddddddddddd   O&844g   4 gFgO bb6ddddddddddddd",
"ddddddddddddd6x &4c88fg8c88 g &4 bb6dddddddddddd",
"dddddddddd666bb 88c88fg8c888 88&rbmm66dddddddddd",
"ddddddddddd6xxx &44c8f gggggg44u xx66ddddddddddd",
"dddddddddddd6  ruufff        gf    ddddddddddddd",
"ddddddddddddddd       d *55*   ddddddddddddddddd",
"ddddddddddddddddddddddd *zz* ddddddddddddddddddd"
};
