/* XPM */
static char *player_8[] = {
/* columns rows colors chars-per-pixel */
"48 48 57 1 ",
"  c black",
". c #070707",
"X c #0B0B0B",
"o c gray5",
"O c #040B16",
"+ c #0F0F10",
"@ c #121313",
"# c gray10",
"$ c #1B1B1A",
"% c #201D1A",
"& c #261F1A",
"* c #09162B",
"= c #0B1D39",
"- c #0C203E",
"; c #2B2C2B",
": c #352D26",
"> c #593D15",
", c #623C02",
"< c #493D34",
"1 c #3B403B",
"2 c #103660",
"3 c #103A65",
"4 c #0F4777",
"5 c #0F4C7C",
"6 c #0F4F7F",
"7 c #4C4C4C",
"8 c gray37",
"9 c #705C4E",
"0 c #616760",
"q c gray46",
"w c #882E00",
"e c #964B1F",
"r c #81571F",
"t c #BF6500",
"y c #AD7203",
"u c #AF7629",
"i c #B36739",
"p c green",
"a c #E08517",
"s c #FFBF17",
"d c #FFD017",
"f c #978F71",
"g c #D69C50",
"h c #EA9777",
"j c #0F5889",
"k c #0F6C9C",
"l c #137CA9",
"z c #3EBCD0",
"x c #66E0E5",
"c c #80929D",
"v c gray66",
"b c #C4BFAC",
"n c #F9C19D",
"m c #FFEC9D",
"M c #BEC8D0",
"N c #FBDCC8",
"B c #E6E6E6",
/* pixels */
"pppppppppppppppppppppppppppppppppppppppppppppppp",
"pppppppppppppppp.....@@@@ppppppppppppppppppppppp",
"pppppppppppppp..@@$$;;;;$@@@pppppppppppppppppppp",
"ppppppppppppp.@@$$$$$$;;;;;;@@pppppppppppppppppp",
"pppppppppppp.@@$$$$$$$$$;;;;;$@@@qqqqqqqpppppppp",
"pppppppppppp.@@$$$$$$$$$$$;;;;;;$@vBBBv yppppppp",
"ppppppppppp.@@@@@$$$$$$$$;;;;;;;;@Bvvq dyppppppp",
"ppppppppppp.@@@@$$$$@@$$$$;;;;;;$@vqq ,,pppppppp",
"ppppppp>>>>.@@@$$$$@@@@@$$$$;;;$$@qq pppyppppppp",
">>>>>>>rrr>.@@$$$$$$$@@..@$$$$$$@q  pppyd,pppppp",
">rrrrrrXXX&.@@$$$$$@@@@@.  @@@@@  &&1ppyd,pppppp",
" rr@@XXXXX&&@@$$$$$$@@@@@XX       &&&1pym,pppppp",
" rr@@@XXXX&:&&@$$$$$$@@@@@XXXXX   <&&1p   pppppp",
"p r@@@@@XX&::<&&&@$$$$$@@@@XXX&7q <: @@@@@@@@@rp",
"p rr@@@@@. ::<<99&&&&&&&&&&&&&<7B : @$$$$$$$uu p",
"p >r@@@@@@@ :<<<999999999<<<<<<7B7  $$$$;;;$gu p",
"pp rr@@@@@@@  <<<<999999999<<<< qq @@$;;;;;gg pp",
"ppp rr@@@@@@@@   <<<<<<<<<<<<<    @@$;;;;;gg ppp",
"pppp rr@@@@@@@$$@             @@@@@$;;;;;gu pppp",
"ppppp rrr@@@@@@@$$$$$$$$$$$$$$;;;;;;;;;ggu ppppp",
"pppppp  rrrr@@@@@@$$$$$$$;;;;;;;;;;;;;ggu pppppp",
"pppppppp  rrrrr@@@@@$$$$$$$$$;;;;;;gggu  ppppppp",
"ppppppppp    rrrrrrrrruuuuuuggggggggu  ppppppppp",
"ppppppppp o11   rrrrrrruuuuuuuuuuuu  ppppppppppp",
"ppppppppp o1o111                   ppppppppppppp",
"ppppppppp ooo111o io1onnn +#####+ ippppppppppppp",
"pppppppppp o+111oo 11onnn ++###+ Nnipppppppppppp",
"pppppppppp oo+111o 11onn +8++++ NNnipppppppppppp",
"ppppppppppp 11++1o 101o+ ++    N1001pppppppppppp",
"ppppppppppp 1oo1++####+++  nno11001opppppppppppp",
"ppppppppppp o 1ooiO 100001oooooo111opppppppppppp",
"ppppppppppp  p  p O 110000000001oooppppppppppppp",
"pppppppppppp p pppwa 110000000001 pppppppppppppp",
"ppppppppppppppppp4*26  111000001 ppppppppppppppp",
"pppppppppppppppp44*2666         pppppppppppppppp",
"pppppppppppppppp44*2662**ss--Obppppppppppppppppp",
"ppppppppppppppp4k4**2222*-lssawppppppppppppppppp",
"ppppppppppppppp4k44 222*w**62awppppppppppppppppp",
"ppppppppppppppp4z44 *222s6be5Mcppppppppppppppppp",
"pppppppppppppp4kz4%5 *2as6 heM5ppppppppppppppppp",
"ppppppppppppp4kzz4*   w2f nieccppppppppppppppppp",
"pppppppppppp4kkzz4****   hh 6  ppppppppppppppppp",
"pppppppppp44zkzxz*622266   66s ppppppppppppppppp",
"pppppppp44kzxzxz*2266lllll66s 2*pppppppppppppppp",
"pppppp44kzxxxxzzwt222666l666s 2==ppppppppppppppp",
"ppp444kzxxxxzzz4  aaasssssss 2=jj=pppppppppppppp",
"pppp  zzzzzzzk  p            3jj3=pppppppppppppp",
"pppppp        pppp 3jjj=pppp 33==ppppppppppppppp"
};
