/* XPM */
static char *wall[] = {
/* columns rows colors chars-per-pixel */
"48 48 174 2 ",
"   c black",
".  c #010101",
"X  c gray1",
"o  c #040303",
"O  c #040403",
"+  c #050404",
"@  c #070705",
"#  c #070706",
"$  c #080707",
"%  c gray3",
"&  c #0A0909",
"*  c #0D0C0C",
"=  c #100F0F",
"-  c #121110",
";  c #141312",
":  c #151512",
">  c #161414",
",  c #171615",
"<  c #191716",
"1  c #1A1817",
"2  c #1B1918",
"3  c #1C1B19",
"4  c #1D1C1A",
"5  c #1E1D1B",
"6  c #1F1E1C",
"7  c #201E1D",
"8  c #231F1F",
"9  c #21201E",
"0  c #232220",
"q  c #242220",
"w  c #272222",
"e  c #252422",
"r  c #272524",
"t  c #282323",
"y  c #2A2425",
"u  c #282725",
"i  c #2B2625",
"p  c #2C2627",
"a  c #2B2927",
"s  c #2E2829",
"d  c #2D2B28",
"f  c #2F2A29",
"g  c #2F282A",
"h  c #2F2B2B",
"j  c #2D2C2A",
"k  c #312B2B",
"l  c #302E2B",
"z  c #312B2C",
"x  c #322E2D",
"c  c #352F2F",
"v  c #32302E",
"b  c #33322F",
"n  c #35322C",
"m  c #362F30",
"M  c #353231",
"N  c #363431",
"B  c #373633",
"V  c #3A3433",
"C  c #393634",
"Z  c #3C3737",
"A  c #3B3A35",
"S  c #3B3836",
"D  c #3B3B37",
"F  c #3D3935",
"G  c #3D3836",
"H  c #3C3937",
"J  c #3D3A37",
"K  c #3D3B38",
"L  c #3E3C39",
"P  c #3F3C3A",
"I  c #3F3E3A",
"U  c #413B3B",
"Y  c #403E38",
"T  c #403E3B",
"R  c #413F3B",
"E  c #433C3C",
"W  c #433F3D",
"Q  c #43403D",
"!  c #41433E",
"~  c #46403E",
"^  c #45423F",
"/  c #45433F",
"(  c #48413F",
")  c #464240",
"_  c #474441",
"`  c #484440",
"'  c #494542",
"]  c #494642",
"[  c #4B4744",
"{  c #4C4744",
"}  c #484842",
"|  c #4B4845",
" . c #4C4945",
".. c #4E4A45",
"X. c #4F4946",
"o. c #4D4A47",
"O. c #4F4B47",
"+. c #4E4E47",
"@. c #504B49",
"#. c #504C49",
"$. c #524C48",
"%. c #514D4A",
"&. c #524E4B",
"*. c #554E4B",
"=. c #4B514B",
"-. c #4F554D",
";. c #51504B",
":. c #53504C",
">. c #52524C",
",. c #54504D",
"<. c #56524E",
"1. c #595751",
"2. c #595652",
"3. c #5D5955",
"4. c #605C57",
"5. c #5D605A",
"6. c #66625C",
"7. c #6D635E",
"8. c #6C6561",
"9. c #666C64",
"0. c #716A64",
"q. c #716E67",
"w. c #776E69",
"e. c #6E7068",
"r. c #71756D",
"t. c #7A7C73",
"y. c #797F75",
"u. c #897D77",
"i. c #837F78",
"p. c #877F78",
"a. c #798278",
"s. c #7E887C",
"d. c #848176",
"f. c #85877C",
"g. c #8B867A",
"h. c #8F867A",
"j. c #818B7F",
"k. c #938A7D",
"l. c #918A7F",
"z. c #958A7D",
"x. c #948A7F",
"c. c #868D82",
"v. c #918C82",
"b. c #8D9386",
"n. c #939382",
"m. c #969085",
"M. c #9B978C",
"N. c #94988C",
"B. c #9E9C8C",
"V. c #9C9991",
"C. c #A19C8C",
"Z. c #A09B91",
"A. c #A69F91",
"S. c #9DA194",
"D. c #ACA18C",
"F. c #A7A199",
"G. c #A2A498",
"H. c #AAA79A",
"J. c #AEA99F",
"K. c #B2A690",
"L. c #B6A891",
"P. c #B7A992",
"I. c #B1AA94",
"U. c #B1AC9F",
"Y. c #B8B099",
"T. c #BAB29A",
"R. c #BCB39B",
"E. c #B7B3A4",
"W. c #B9B4A6",
"Q. c #BCB6A9",
"!. c #BDB8AA",
"~. c #C0BAAB",
"^. c #CEC6BD",
"/. c #CFC7BE",
/* pixels */
"~.~.~.~.~.z.A.~./././.~.~.~.~.x.~.~.~.7.x.~.~.~././.~.7.w.w.w.w.w.w.x.x.~.~.~.z.7.w.w.~././././.",
"/.~.~.~.~.z.x.A.A.~././.~.~.x.x.R.P.~.~.w.x.~.~.R.R.A.x.~././.u.w.w.w.w.x.z.x.7.7.w.w.~././././.",
"/././.~.z.z.x.u.~./././.~.x.x.R.R.~.~.~.x.x.u.x.z.u.A.R.R.~.~.~.x.x.w.R.R.~.~.x.x.A.A.A.~./././.",
"/.~.A.z.A.A.A.u.x././.~.x.u.P.~.R.~.~.P.x.u.u.z.~.R.R.~.~.~.~./.x.x.R.R.R.~.~.~././././.~.A.~./.",
"7.w.w.z.A.A.A.w.u.z.z.u.u.u.R.~.~.P.~.u.x.P.P.z.~.~.~.~.~.~././.z.~.~.R.R.R.~./././././././.~.z.",
"A.R.w.w.z.z.z.w.R.~.~.~.u.u.z.R.~.R.u.x.A.R.R.R.z.~.~.~.~.~.~.w.R.~.~.~.~.~.~./././././././.~.z.",
"~.R.R.R.7.w.w.P.~.~.~.~.R.R.w.7.u.u.x.A.R.R.~.P.R.z.x.x.z.z.w.w.~.~.~.~.~.~.~.A././././.~.A.z.A.",
"/.R.R.R.R.7.7.R.~.~.~.~.~.R.x.7.z.P.P.R.~.~.~.R.W.~.x.x.~.~.x.w.~././././.~.~.x.A.~.~.~.A.~./.~.",
"~.~.A.R.R.w.w.z.x.~.~.~.R.x.u.w.u.P.R.~.~.Q.H.i.S.~.x.~.~.~.~.x.R./././././.R.x.x.z.A.x.x.x././.",
"~.~.~.x.w.w.w.w.w.z.x.x.x.u.w.w.w.x.~.~.J.Z.f.t.b.b.z.R.~.~.~.~.u.z./././.~.x.x.x.A.x.x.x.x.~./.",
"/.~.A.u.w.u.u.w.z.x.A.A.A.A.P.P.x.x.k.m.i.>.2.3.G O.O.A.~.~.R.~.w.7.z.P.P.P.x.u.A.A.x.x.x.A.~.~.",
"~.x.u.u.u.z.w.~.~.~.A.A.A.P.P.P.K.g.3.+./ @.%.O.G O.] z.A.~.R.R.x.7.w.w.u.z.w.w.A.A.A.A.x././.A.",
"~.~./.~.z.z.R.~.~.~.~.~.P.R.R.I.g.*.( H N &.I 4.L O.P 4.6.s.l.m.h.q.w.u.A.A.A.u.u.A.A.x././././.",
"~././.~.x.w.R.~.~.~.~.A.R.R.Y.v. .z m K T Q _ 4.] ] P 4.4.4.V G 8.8.p.z.A.A.x.u.u.u.u.x././././.",
"/./.~.z.w.w.u././.~.~.A.R.R.C.v.F g m K R C | :.O.] P 3.4.) i w V ' r.r.z.x.x.w.w.u.u.z.x./././.",
"z.z.u.w.7.7.x.u./.~.~.~.~.W.b.q.E g k C / v S R o.P P %._ ~ p y s X.' r.u.u.u.w.w.w.7.u.x.x.x.x.",
"7.7.7.7.7.7.x.x.u.~./.~.!.b.5.W g 3 M a N a M j L P P ) Q %.s h s X.X.' r.u.u.x././.~.~.w.w.w.w.",
"7.R.~.~.R.P.z.z.u.R./.^.G.9.W ' B X # , 0 0 6 - l x P ' Q P < f x %.@.' ' u.A./././.~././.~.w.7.",
"~.R.R.A.P.P.P.P.u.u.Y.H.e.2.U | 4     X , 4 ; + 3 e H ` ^ Z 2 q c ' [ J ' u././.~././././.~.~.7.",
"R.R.R.R.A.A.P.P.P...i.y.4.L ^ K ;         .     = 6 d v B 0 < t R o.{ J X.w.~.R./././././.~.~.w.",
"~.R.R.R.A.A.A.P.L.....:.I B B r %                 & 9 9 1 X . 0 S ^ ' J X.1.l.P./././././.~.A./.",
"A.R.R.A.A.A.R.~.E.<.#.2.M j u > .                   & * X     = 4 S S u J ,.t.z.P.~././.~.A.A./.",
"~.A.A.A.A.~.~.~.U.<.L ] 3 > 3 #                     .         o $ q j q b ,.1.w.w.z.x.x.x.x././.",
"/.~.R.R.A.~.~.!.N.;.o.K - % #                                     * 3 q u F 1.1.1.x.x.x.A.~././.",
"/./.~.R.R.A.~.S.j.:                                                     @ 9 a } x.R.~.R.A././.~.",
"/././.~.R.R./.G.s.:                                                     * 9 B 7.R.~.~.~.~.R.~./.",
"/././.~.R././.!.n.:                                                     X 2 Y x.!.~.~.~.~.~././.",
"/././.~./././.x.h.:                                                       * B j.Q.~.~.R.A.R././.",
"/./.~.z.x.x.x.z.w.u   #                                                   X 0 7.k.A.A.x.x.x.x./.",
"x.x.z.z.u.w.7.7.7.A 5                                                       ; q w.x.x.w.7.7.7.x.",
"z.z.u.u.w.7.7.w.w.$.A 5 #                                                 o   q x.R.R.R.z.7.7.7.",
"~.~.P.z.z.u.u.w.w.w.$.A A u 7 #                                         O ; q q x.R.R./.~.A.7.~.",
"~.~.x.z.z.u.~.~.~.~.w.h.x.a.w.H #                                     # 8 -.-.7.w.u.R.~./.A.u./.",
"R.P.x.z.u.~.~.~.~.~.~.w.z.x.f.a.v +                             O - =.a.n.D.P.P.R.x.z.x.x.u.w.u.",
"u.7.x.R.~.~.~.~.~.~.~.w.w.u.k.s.t.n #                       @ : ! a.n.I.I.R.R.R.R.P.P.P.P.w.w.w.",
"w.u.~.~.~.~.A.~.~.~.R.w.w.u.z.l.s.c.S #                   @ w 0.j.B.T.R.R.R.P.P.P.P.P.P.P.P.P.w.",
"w.u.P.~.~.A.~.~./.A.z.x.~.~.~.z.l.c.c.7                   , e.b.Q.~.R.R.R.P.P.R.R.R.P.P.P.P.P.x.",
"x.~.u.P.A.A././.A.x.R.~.~./././.R.p.r.I < #             + D c.E.~.~.~.R.R.R.P.R.R.P.P.P.P.P.x.P.",
"x.x.u.u.u.z.x.x.u.w.R.R.R././././.x.0.n.d.A e q     # 3 e f.U.~.~.~.~.~.~.~.P.P.P.P.P.P.P.~.~.P.",
"u.z.~.~.P.u.u.u.w.w.P.~.~.R././.R.x.u.~.W.J.M.d.e e A 4.4.J.~.~././.~.~.~.~.P.P.P.R.R.P.x.~.A.z.",
"u.z./.~.~.R.A.A.A.w.z.P.~.~.P.P.P.z.u.~./././.~.F.V.b.n.z.x.~././././.~.~./.R.P.P.P.P.R.x.x.z.u.",
"/.A././.~.R.R.A.A.w.w.u.u.z.u.z.x.z.z.x.x./.~././.^.~.u.u.7.z././././././.R.x././.~.~.x.z.z.~./.",
"/.u.A././.~.A.u.u.z.z.u.7.7.7.u.u.u.u.7.u.x.A.R.~./.z.u.7.7.7.z.~././.~.R.u.z./.~.~.~.z.z.~.~.~.",
"~.~.u.A.A.z.z.z.~.~.~.A.z.7.u.u.x.A.A.u.7.u.u.z.z.7.7.u.z.z.7.7.u.u.z.z.z.P.P.R.R.A.z.z.R.~.~.~.",
"~.R.w.w.7.7.7.~.~.~.~.~.~.A.u.z.A.A.A.A.7.7.7.7.7.7.u.x.x.z.u.7.~.~.~.~.~.A.x.P.z.z.u.u.R.~.P.R.",
"R.A.A.A.7.7.z.~./././.~.~.A.A.w.z.A.A.u.7.P.P.P.7.u.x.x.x.z.z.~././.~.~.R.P.A.P.P.z.u.u.P.P.R.R.",
"A.A.A.A.A.7.A./././././.A.~.~.u.w.w.w.7.P.P.P.A.A.z.x.x.x.z.7.P./././.R.~.~././.P.7.7.w.z.P.R.R.",
"A.~.~.~.A.7.~./././././.~././.u.w.w.7.7.P.~.~.A././.z.x.z.7.7.7.u.x.R.A.~.~././.P.7.w.z.A.A.x.x."
};
